<?xml version="1.0" standalone="no"?>
<!DOCTYPE svg PUBLIC "-//W3C//DTD SVG 1.1//EN" "http://www.w3.org/Graphics/SVG/1.1/DTD/svg11.dtd">
<svg xmlns="http://www.w3.org/2000/svg">
<metadata>Copyright (C) 2020 by original authors @ fontello.com</metadata>
<defs>
<font id="fontello" horiz-adv-x="1000" >
<font-face font-family="fontello" font-weight="400" font-stretch="normal" units-per-em="1000" ascent="850" descent="-150" />
<missing-glyph horiz-adv-x="1000" />
<glyph glyph-name="wallet" unicode="&#xe800;" d="M952 264h-15v135c0 21-10 40-26 52v18c0 27-22 48-49 48h-11l43 63c14 21 9 50-12 64l-290 198c-11 7-23 10-35 7-12-2-23-9-30-19l-250-368h-70l17 171c0 2 2 3 3 4 22 8 41 23 53 43 1 1 3 2 5 2l109-11c8-1 15 5 16 13s-5 15-13 16l-109 10c-13 2-25-4-32-15-9-14-23-25-39-31-12-5-20-16-21-29l-17-173h-18l26 270c1 9 10 16 20 15l220-21c8-1 15 5 16 12s-5 15-13 16l-221 22c-25 2-48-16-50-42l-22-217h-36c-27 0-48-21-48-48v-12c-22-10-37-32-37-58v-486c0-35 28-63 63-63h795c35 0 63 28 63 63v135h15c18 0 32 15 32 32v152c0 18-14 32-32 32z m-90 225l0 0c11 0 20-9 20-20v-7c-3 0-5 0-8 0h-60l18 27h30z m-311 325c3 4 7 6 11 7 1 0 3 1 4 1 3 0 7-2 10-4l290-197c8-6 10-17 4-25l-91-134h-22l45 66c7 11 8 24 2 35-9 15-12 33-10 50 2 12-4 24-14 32l-151 102c-10 7-24 8-35 2-15-9-32-12-49-9-13 1-25-4-32-15l-180-263h-21l239 352z m6-242c-62 0-113-49-117-110h-72l168 247c0 0 0 0 0 0 1 2 3 2 4 2 0 0 1 0 1 0 23-3 47 2 67 13 1 1 4 1 5-1l151-102c1-1 2-3 2-5-3-23 1-46 13-67 1-1 0-3-1-5l-55-82h-49c-4 61-55 110-117 110z m89-110h-177c4 46 42 81 88 81 47 0 85-35 89-81z m-565 7c0 11 9 20 20 20h34l-3-27h-51v7z m-37-70c0 19 16 35 35 35h795c19 0 35-16 35-35v-39h-865v39z m865-486c0-19-16-35-35-35h-795c-19 0-35 16-35 35v40h77c8 0 14 6 14 14 0 8-6 14-14 14h-77v350h865v-67h-136 0c-42 0-79-25-97-61 0 0 0 0 0 0 0 0 0-1 0-1-2-4-4-9-6-14 0 0 0 0 0 0-3-10-5-21-5-32 0-59 49-108 108-108h0 136v-67h-697c-8 0-14-6-14-14 0-8 6-14 14-14h697v-40z m47 167c0-2-2-3-4-3h-179c-30 0-56 17-70 41 0 1-1 3-1 4-1 2-2 4-3 7-3 8-5 18-5 27s2 19 5 28c1 2 2 4 3 7 0 1 1 2 1 3 14 25 40 42 70 42h179c2 0 4-2 4-4v-152z m-179 134c-32 0-58-26-58-58 0-32 26-58 58-58 32 0 58 26 58 58 0 32-26 58-58 58z m0-87c-16 0-30 13-30 29 0 16 14 30 30 30s29-14 29-30-13-29-29-29z" horiz-adv-x="1000" />

<glyph glyph-name="support" unicode="&#xe801;" d="M333 850c-138 0-250-112-250-250v-183c0-65 53-117 117-117h17v33h-17c-46 0-83 38-83 84v183c0 120 97 217 216 217s217-97 217-217v-183c0-46-37-84-83-84h-17v-33h17c64 0 116 52 116 117v183c0 138-112 250-250 250z m-196-785l13 19-29 18-12-20c-37-58-34-133 7-188v-44h33v50c0 4-1 7-3 10-36 45-39 107-9 155z m780 785h-217c-46 0-83-37-83-83v-167c0-46 37-83 83-83h33v-67c0-7 4-13 11-15 2-1 4-2 6-2 4 0 9 2 12 5l78 79h77c46 0 83 37 83 83v167c0 46-37 83-83 83z m50-250c0-28-23-50-50-50h-84c-4 0-8-2-11-5l-55-55v43c0 10-8 17-17 17h-50c-28 0-50 22-50 50v167c0 27 22 50 50 50h217c27 0 50-23 50-50v-167z m-409-518l-13 20-28-18 12-19c31-48 27-110-8-155-2-3-4-6-4-10v-50h34v44c41 55 43 130 7 188z m425 201h-150c-62 0-114-49-116-112l-50-90v69c0 64-53 117-117 117h-61l0 0-1 0h-38c-18 0-33 15-33 33v39c51 30 83 85 83 144v134c0 27-7 55-20 79-4 8-14 11-22 7l-282-133c-6-3-9-8-9-15v-72c0-59 32-114 83-144v-39c0-18-15-33-33-33h-100c-65 0-117-53-117-117v-300h33v300c0 46 38 83 84 83h53l150-209c3-5 8-7 13-7h0c6 0 11 2 14 6l158 210h45c46 0 83-37 83-83v-133c0-9 8-17 17-17 6 0 12 3 15 9l78 141h96l-163-300h38l163 300h6c65 0 117 52 117 117 0 9-7 16-17 16z m-783 200v62l257 121c7-16 10-33 10-49v-134c0-73-60-133-134-133-73 0-133 60-133 133z m134-421l-52 71h106l-54-71z m79 105h-155l-47 66h6c37 0 66 30 66 67v24c33-10 68-10 100 0v-24c0-37 30-67 67-67h13l-50-66z m470 16h-131c8 39 42 67 81 67h132c-8-39-42-67-82-67z" horiz-adv-x="1000" />

<glyph glyph-name="phone-call" unicode="&#xe802;" d="M790 231c-20 21-45 32-71 32-26 0-51-11-72-32l-67-67c-5 3-11 6-16 9-8 4-15 7-21 11-62 40-119 91-174 158-26 34-44 62-57 90 18 16 34 32 49 48 6 6 12 12 18 18 44 45 44 102 0 146l-58 58c-6 6-13 13-19 20-13 13-26 27-40 39-20 20-45 31-71 31s-50-11-71-31c-1 0-1 0-1 0l-72-73c-27-27-42-60-45-98-6-61 13-119 27-156 34-93 85-178 161-270 93-110 204-197 331-259 48-23 113-50 186-55 4 0 9 0 13 0 49 0 90 17 122 52 0 1 0 1 0 1 11 14 24 26 37 39 10 8 19 17 28 27 21 22 32 47 32 73 0 26-11 51-33 72l-116 117z m76-223c0 0 0 0 0 0-8-9-17-17-26-26-14-13-27-26-41-42-21-23-46-33-79-33-3 0-6 0-10 0-62 4-121 28-164 49-120 58-225 140-312 244-72 87-120 167-152 253-19 53-27 94-23 133 2 24 11 45 29 62l72 72c10 10 21 15 32 15 13 0 24-8 31-15 0 0 0 0 0 0 13-12 25-25 38-38 7-7 14-13 20-20l58-58c22-22 22-43 0-65-6-7-12-13-18-19-18-18-35-35-53-51-1-1-1-1-1-1-18-18-15-36-11-48 0-1 0-1 0-2 15-36 36-70 69-111l0 0c58-72 119-128 187-171 9-5 18-10 26-14 8-4 15-7 21-11 1-1 2-1 3-2 7-3 14-5 20-5 18 0 29 11 33 15l72 72c7 7 18 16 32 16 13 0 23-9 30-16 0 0 0 0 0 0l117-117c21-21 21-43 0-66z m-326 604c56-9 106-35 146-75s66-91 76-146c2-14 14-24 28-24 1 0 3 1 5 1 15 2 26 17 23 33-11 67-43 128-91 176s-110 80-177 91c-15 3-30-7-33-23s8-30 23-33z m459-203c-19 110-71 210-151 290s-180 132-290 151c-15 2-30-8-33-24-2-15 8-30 24-33 98-16 188-63 259-134 72-71 118-161 135-259 2-14 14-24 28-24 2 0 3 0 5 0 15 3 26 18 23 33z" horiz-adv-x="1000" />

<glyph glyph-name="phone-miscall" unicode="&#xe803;" d="M804-150c-42 0-92 10-147 31-121 46-253 136-371 254-119 119-209 251-255 372-41 110-41 200 0 242 6 6 12 12 18 19 38 39 82 85 137 82 39-2 77-26 116-74 114-142 63-193 3-252l-11-10c-9-10-28-55 144-226 56-56 103-97 142-122 24-16 66-39 84-22l11 11c58 60 109 111 251-3 48-39 72-77 74-116 2-56-43-99-82-137-7-6-13-12-19-18-21-21-54-31-95-31z m-622 966c-40 0-76-38-108-72-7-6-13-13-19-19-31-31-28-112 8-206 44-117 131-245 246-360 115-115 243-202 360-246 94-36 175-39 206-8 6 6 13 12 19 19 35 32 74 70 72 111-1 28-21 59-61 91-118 95-151 61-206 5l-11-10c-26-27-69-21-127 17-40 26-89 68-147 126-142 142-188 229-143 274l10 11c56 54 90 88-5 206-32 39-63 60-91 61-1 0-2 0-3 0z m476-325c-5 0-9 1-12 5-7 6-7 17 0 24l325 325c7 7 18 7 24 0s7-17 0-24l-325-325c-4-4-8-5-12-5z m249 0h-249c-10 0-17 7-17 17v249c0 9 7 16 17 16s16-7 16-16v-233h233c9 0 16-7 16-16s-7-17-16-17z" horiz-adv-x="1000" />

<glyph glyph-name="glass" unicode="&#xe804;" d="M948 746q0-19-24-43l-353-353v-429h179q15 0 25-10t11-25-11-25-25-11h-500q-14 0-25 11t-11 25 11 25 25 10h179v429l-353 353q-24 24-24 43 0 13 10 21t21 9 24 3h786q13 0 24-3t21-9 10-21z" horiz-adv-x="1000" />

<glyph glyph-name="infinity" unicode="&#xe805;" d="M0 350q0 93 66 159t159 66 159-66l72-69 73 70q65 65 157 65 92 0 158-66t67-159-67-159-158-66q-92 0-158 66l-72 69-73-70q-65-65-158-65t-159 66-66 159z m225 95q-39 0-67-28t-28-67q0-40 28-67t67-28 68 28l68 67-68 66q-29 29-68 29z m529-162q27 27 27 67t-27 68-67 27-67-27l-70-68 69-66q27-28 67-28t68 27z" horiz-adv-x="911" />

<glyph glyph-name="infinity-1" unicode="&#xe806;" d="M796 570q84 0 144-53t60-167q0-112-60-166t-144-54q-78 0-157 40t-139 106q-58-66-137-106t-157-40q-86 0-146 54t-60 166q0 114 60 167t146 53q78 0 157-39t137-105q58 66 138 105t158 39z m-590-352q60 0 127 37t113 95q-46 58-112 95t-128 37q-114 0-114-132t114-132z m590 0q114 0 114 132t-114 132q-62 0-129-37t-111-95q44-58 111-95t129-37z" horiz-adv-x="1000" />

<glyph glyph-name="home" unicode="&#xe807;" d="M786 296v-267q0-15-11-25t-25-11h-214v214h-143v-214h-214q-15 0-25 11t-11 25v267q0 1 0 2t0 2l321 264 321-264q1-1 1-4z m124 39l-34-41q-5-5-12-6h-2q-7 0-12 3l-386 322-386-322q-7-4-13-3-7 1-12 6l-35 41q-4 6-3 13t6 12l401 334q18 15 42 15t43-15l136-113v108q0 8 5 13t13 5h107q8 0 13-5t5-13v-227l122-102q6-4 6-12t-4-13z" horiz-adv-x="928.6" />

<glyph glyph-name="home-outline" unicode="&#xe808;" d="M1108 422q38-30 38-80 0-42-30-73t-75-31l-51 0 0-312q0-44-31-75t-74-30l-625 0q-42 0-73 30t-31 75l0 312-52 0q-44 0-74 31t-30 73q0 46 36 79 79 66 204 174t211 181 88 75l34 29 35-29q1-1 86-75t211-181 203-173z m-430-496l0 260-209 0 0-260 209 0z m207 416l156 0q-231 194-468 400-238-206-469-400l156 0 0-416 156 0 0 312 313 0 0-312 156 0 0 416z" horiz-adv-x="1146" />

<glyph glyph-name="glass-1" unicode="&#xe809;" d="M948 746q0-19-24-43l-353-353v-429h179q15 0 25-10t11-25-11-25-25-11h-500q-14 0-25 11t-11 25 11 25 25 10h179v429l-353 353q-24 24-24 43 0 13 10 21t21 9 24 3h786q13 0 24-3t21-9 10-21z" horiz-adv-x="1000" />

<glyph glyph-name="infinity-2" unicode="&#xe80a;" d="M0 350q0 93 66 159t159 66 159-66l72-69 73 70q65 65 157 65 92 0 158-66t67-159-67-159-158-66q-92 0-158 66l-72 69-73-70q-65-65-158-65t-159 66-66 159z m225 95q-39 0-67-28t-28-67q0-40 28-67t67-28 68 28l68 67-68 66q-29 29-68 29z m529-162q27 27 27 67t-27 68-67 27-67-27l-70-68 69-66q27-28 67-28t68 27z" horiz-adv-x="911" />

<glyph glyph-name="infinity-3" unicode="&#xe80b;" d="M796 570q84 0 144-53t60-167q0-112-60-166t-144-54q-78 0-157 40t-139 106q-58-66-137-106t-157-40q-86 0-146 54t-60 166q0 114 60 167t146 53q78 0 157-39t137-105q58 66 138 105t158 39z m-590-352q60 0 127 37t113 95q-46 58-112 95t-128 37q-114 0-114-132t114-132z m590 0q114 0 114 132t-114 132q-62 0-129-37t-111-95q44-58 111-95t129-37z" horiz-adv-x="1000" />

<glyph glyph-name="home-1" unicode="&#xe80c;" d="M786 296v-267q0-15-11-25t-25-11h-214v214h-143v-214h-214q-15 0-25 11t-11 25v267q0 1 0 2t0 2l321 264 321-264q1-1 1-4z m124 39l-34-41q-5-5-12-6h-2q-7 0-12 3l-386 322-386-322q-7-4-13-3-7 1-12 6l-35 41q-4 6-3 13t6 12l401 334q18 15 42 15t43-15l136-113v108q0 8 5 13t13 5h107q8 0 13-5t5-13v-227l122-102q6-4 6-12t-4-13z" horiz-adv-x="928.6" />

<glyph glyph-name="home-outline-1" unicode="&#xe80d;" d="M1108 422q38-30 38-80 0-42-30-73t-75-31l-51 0 0-312q0-44-31-75t-74-30l-625 0q-42 0-73 30t-31 75l0 312-52 0q-44 0-74 31t-30 73q0 46 36 79 79 66 204 174t211 181 88 75l34 29 35-29q1-1 86-75t211-181 203-173z m-430-496l0 260-209 0 0-260 209 0z m207 416l156 0q-231 194-468 400-238-206-469-400l156 0 0-416 156 0 0 312 313 0 0-312 156 0 0 416z" horiz-adv-x="1146" />

<glyph glyph-name="mechanic" unicode="&#xe80e;" d="M950-5h2v97c0 2-1 52-18 103l-52 123h-43-43l-53-124c-17-50-17-100-17-102v-32h-49c-26 0-48 21-48 48v67c77 45 129 128 129 223v3c28 7 48 32 48 62 0 29-10 47-17 55 1 3 1 6 1 9v33c0 160-130 290-290 290-160 0-290-130-290-290v-33c0-3 0-6 1-9-6-8-17-26-17-55 0-30 20-55 48-62v-3c0-95 52-178 129-223v-67c0-27-22-48-48-48h-81v22c32 20 48 51 48 91 0 39-26 85-77 96l-19 4v-84h-33v84l-19-4c-51-11-77-57-77-96 0-40 16-71 48-91v-40c-67-31-113-98-113-176v-16h32v16c0 84 64 153 145 161v-177h33v177h48v-177h32v177h33c6 0 13 1 19 3 14-75 79-132 158-132s144 57 158 132c7-2 13-3 19-3h33v-177h32v177h48v-177h33v177c81-8 145-77 145-161v-16h32v16c0 50-19 95-50 129z m-731 111l-9-4v-42h-16c-17 0-33-3-49-7v49l-9 4c-26 14-39 35-39 67 0 20 11 44 32 57v-73h97v73c21-13 32-37 32-57 0-32-13-53-39-67z m539 371c5 3 9 6 12 9 3-6 4-13 4-23 0-12-6-22-16-28v42z m-274 340v-112h32v112c132-8 237-116 242-249-58 31-178 40-258 40-80 0-200-9-258-40 5 133 110 241 242 249z m-242-382c-10 6-16 16-16 28 0 10 2 17 4 23 3-3 8-6 12-9v-42z m0 92c3 17 97 49 258 49 161 0 255-32 258-49 0-31-96-64-258-64-161 0-258 33-258 64z m32-129v63c71-27 182-30 226-30 45 0 155 3 226 30v-63c0-124-101-225-226-225-124 0-226 101-226 225z m226-467c-66 0-121 50-128 114 19 15 31 37 31 63v51c30-12 63-19 97-19s67 7 97 19v-51c0-26 12-48 31-63-7-64-62-114-128-114z m303 129h-45v32c0 0 0 46 15 90l44 104h6v-149c-19-6-33-24-33-45 0-12 5-24 13-32z m36 16c-9 0-16 7-16 16 0 9 7 16 16 16 9 0 16-7 16-16 0-9-7-16-16-16z m80-53c-16 12-35 22-55 28 14 9 23 24 23 41 0 21-13 39-32 45v149h5l44-102c15-45 15-92 15-92v-69z" horiz-adv-x="1000" />

<glyph glyph-name="maintenance" unicode="&#xe80f;" d="M383 472c-2 6-8 11-15 11l-14 0c51 40 81 102 80 167 0 85-49 163-126 199-5 2-11 1-16-2-5-3-8-8-8-14l0-166-133 0 0 166c0 6-3 11-8 14-5 3-11 4-16 2-75-35-124-109-126-192-3-83 43-160 116-198l0-76-41 0c-24 0-45-14-54-36-9-22-4-48 13-64-11-11-18-26-18-42 0-16 7-31 18-42-11-11-18-26-18-41 0-16 7-31 18-42-17-17-22-42-13-64 9-22 30-36 54-36l41 0 0-67c0-55 45-100 100-100 56 0 101 45 101 100l0 67 400 0 0 33-300 0 0 301 300 0 0 33-305 0z m-5-89l-60 0 0 67 38 0z m-60 422c47-31 77-82 82-138l-82 0z m-177-320c-61 28-102 86-107 153-5 67 27 131 83 167l0-155c0-9 8-17 17-17l266 0c-6-65-46-122-106-148-6-3-10-9-10-15l0-87-50 0 0 83-33 0 0-83-50 0 0 87c0 6-4 12-10 15z m-90-411c0 14 11 25 25 25 9 0 16 8 16 17 0 9-7 17-16 17-14 0-25 11-25 25 0 14 11 25 25 25 9 0 16 7 16 16 0 10-7 17-16 17-14 0-25 11-25 25 0 14 11 25 25 25 9 0 16 8 16 17 0 9-7 17-16 17-14 0-25 11-25 25 0 13 11 25 25 25l308 0 0-301-308 0c-14 0-25 11-25 25z m233-125c0-37-30-67-67-67-36 0-66 30-66 67l0 67 133 0z m0 0m-33 0c0-18-15-33-34-33-18 0-33 15-33 33 0 18 15 33 33 33 19 0 34-15 34-33z m0 0m-100 636l133 0 0-34-133 0z m0 0m300-452c0-28 22-50 50-50 28 0 50 22 50 50 0 27-22 50-50 50-28 0-50-23-50-50z m67 0c0-10-8-17-17-17-9 0-17 7-17 17 0 9 8 16 17 16 9 0 17-7 17-16z m0 0" horiz-adv-x="1000" />

<glyph glyph-name="location" unicode="&#xe810;" d="M328 166c41-59 82-110 110-144 4-5 7-9 11-14h-82c-9 0-17-7-17-16s8-17 17-17h266c10 0 17 7 17 17s-7 16-17 16h-82c4 5 7 9 11 14 28 33 69 85 110 144 41 56 78 115 110 177 34 67 51 122 51 165 1 88-35 173-97 236-4 4-11 6-16 4-6-1-11-6-12-11-2-6 0-12 4-17 57-56 88-132 88-212 0-37-16-88-48-150-31-60-67-118-107-173-41-58-81-109-108-142-9-11-17-21-24-29-3-3-8-6-13-6-5 0-9 3-13 6-7 8-15 18-24 29-26 33-67 84-108 142-40 55-76 113-107 173-32 62-48 113-48 150 0 121 72 230 183 277 75 31 159 31 234 0 5-3 12-2 16 2 5 3 8 9 7 15-1 6-5 11-10 13-170 72-365-7-437-177-17-41-26-85-26-130 0-43 17-98 51-165 32-62 69-121 110-177z m172 492c9 0 17 8 17 17s-8 17-17 17c-79 0-148-56-163-134-16-78 26-157 99-187 74-30 158-5 203 61 44 67 35 155-21 211-4 4-10 6-16 4-6-1-11-6-12-11-2-6 0-13 4-17 45-45 52-115 17-168-35-53-103-74-162-49-59 24-92 87-80 149s67 107 131 107z m494-726l-103 183c-9 17-26 27-45 27h-119c-9 0-17-8-17-17s8-17 17-17h119c7 0 13-3 16-9l103-183c2-5 2-11 0-16-4-5-10-9-17-8h-896c-7-1-13 3-16 8-3 5-3 11-1 16l103 183c3 6 10 9 16 9h119c9 0 17 8 17 17s-8 17-17 17h-119c-19 0-36-10-45-27l-103-183c-8-15-8-34 1-48 9-16 26-26 45-26h896c19 0 36 10 45 26 9 14 9 33 1 48z m-177 126h-67c-3 0-6-1-9-2l-50-34c-8-5-10-15-5-23 5-8 16-10 23-5l46 31h62c9 0 16 7 16 17 0 9-7 16-16 16z m-100-116c0-10 7-17 16-17h134c9 0 16 7 16 17s-7 16-16 16h-134c-9 0-16-7-16-16z m-417 50c7 0 14 4 16 12 2 7-1 14-7 18l-50 34c-2 1-6 2-9 2h-67c-9 0-16-7-16-16 0-10 7-17 16-17h62l46-31c3-1 6-2 9-2z m-167-34c-9 0-16-7-16-16s7-17 16-17h134c9 0 16 7 16 17s-7 16-16 16h-134z" horiz-adv-x="1000" />

<glyph glyph-name="handshake" unicode="&#xe811;" d="M996 229l-76 76c-10 10-23 15-37 15-11 0-21-3-29-8l-65 65 23 22c24 24 24 63 0 87-11 10-24 16-38 17 6 21 1 45-16 61-9 10-21 16-35 17 3 7 5 15 5 23 0 16-7 31-18 43-11 11-25 17-39 18 6 20 1 44-15 60-12 12-27 18-43 18-13 0-24-4-34-10l-4 8c-9 17-29 28-49 25l-92-13c-11 10-25 15-40 15-15 0-30-6-41-18-11-10-17-24-18-38-4 1-8 1-12 1-16 0-31-6-42-17v0c-16-16-21-39-15-60-12-1-25-7-34-17 0 0 0 0 0 0-16-15-21-37-16-56-13-1-27-7-37-17v0c-23-23-23-61 0-84l23-23c3-3 5-5 8-7 3-17 9-33 20-47l-84-83c-20 13-48 11-66-7l-76-76c-9-9-2-25 11-25 3 0 7 2 10 5l76 75c9 9 24 9 33 0l47-47c6-6 15-6 21 0 6 6 6 15 0 21l-34 34 92 92c6 6 6 15 0 21-8 8-13 17-17 27 0 0 1 0 1 0 15 0 30 5 42 17 10 10 16 23 17 37 5-2 10-2 15-2 16 0 31 6 42 17 9 9 15 21 17 34 6-3 13-4 19-4 16 0 31 6 42 18 21 20 23 52 7 75 11 2 21 8 28 16 1 0 1 0 1 0 3 0 5 1 8 1l34 6c4 0 8 1 11 5l1 0c0 0 0 0 0 0l14 14 43 43c0 1 0 1 1 1l4 4c6 6 14 10 23 10 8 0 16-4 22-10 13-12 13-32 0-45l-12-12c-6-6-6-15 0-21 6-5 15-5 21 0l0 0c12 13 33 13 45 0 6-6 9-14 9-22 0-9-3-17-9-23l-17-17c0 0 0 0 0 0-6-6-6-15 0-21 6-5 15-5 21 0l0 0c6 6 14 10 22 10 9 0 17-4 23-10 12-12 12-32 0-45l-13-13c-6-5-6-14 0-20 6-6 15-6 21 0 6 6 14 9 22 9s17-3 23-9c13-13 13-33 0-45l-32-33c-1 0-1 0-1 0 0 0 0 0 0 0l-188-188c-13-13-30-20-48-20-18 0-35 7-47 20l-3 2c-6 6-15 6-21 0l-101-101-107 106c-5 6-15 6-20 0-6-5-6-15 0-20l119-120c9-9 9-24 0-33l-76-76c-5-6-5-15 0-21 3-2 7-4 11-4 4 0 7 2 10 4l76 76c18 18 20 46 7 66l92 93c17-14 38-21 60-21 26 0 51 10 69 28l178 178 63-64-182-182-38 38c-5 6-15 6-20 0-6-6-6-15 0-21l38-39c-5-8-8-18-8-28 0-14 5-28 15-38l76-75c6-6 15-6 21 0 5 5 5 15 0 20l-76 76c-4 4-7 10-7 17s3 12 7 16l208 208c4 5 10 7 17 7s12-2 16-7l76-75c6-6 15-6 21 0 5 5 5 15 0 20z m-623 501c6 5 12 8 20 8-1 0-1 0-1 0-5-7-7-16-6-24l3-16c3-22 15-40 32-53 2-1 3-2 5-3-6 1-11 4-16 8l-20 21-17 16c-11 12-11 31 0 43z m-108-270c-12-12-31-12-42 0l-23 23c-12 11-12 30 0 42v0c11 12 30 12 42 0l14-14 9-9c6-6 9-13 9-21 0-8-3-16-9-21z m74 52c-6-6-13-9-21-9-8 0-16 3-21 9l-20 19-14 15c0 0 0 0 0 0l-11 10c-11 12-11 31 0 42v0c12 12 31 12 43 0l44-44c12-12 12-31 0-42z m79 47c-6-5-14-8-22-8-8 0-15 3-21 8l-15 16c0 0 0 0 0 0l-45 44c0 0 0 0 0 0l-13 14c-12 12-12 31 0 42v0c11 12 30 12 42 0l8-8c0 0 1 0 1 0l16-16 49-49c11-12 11-31 0-43z m128 143l-36-36-33-6c-14-2-27 1-39 9-11 8-18 20-20 33l-3 16c0 1 0 2 1 2 0 0 0 1 1 1l113 16c1 0 2 0 3 0 7 0 13-4 16-10l8-14-11-11z" horiz-adv-x="1000" />

<glyph glyph-name="fire" unicode="&#xe812;" d="M874 255l-1 10c-12 149-81 242-142 325-57 76-106 142-106 239 0 8-4 15-11 19-7 3-16 3-22-2-92-66-169-177-195-283-19-73-22-156-22-211-85 18-104 145-104 147-1 6-5 12-11 15-6 3-13 4-19 1-4-3-109-56-115-269-1-7-1-14-1-21 0-207 168-375 375-375s375 168 375 375c0 10-1 20-1 30z m-374-363c-69 0-125 59-125 133 0 2 0 5 0 8 1 31 7 52 13 66 12-26 34-50 69-50 12 0 21 10 21 21 0 30 1 64 8 95 7 27 22 56 42 80 9-31 26-55 43-79 24-34 49-70 54-130 0-4 0-7 0-11 0-74-56-133-125-133z m132 27c21 29 35 66 35 106 0 5-1 9-1 18-5 68-35 110-61 147-22 32-41 59-41 98 0 7-5 15-12 18-7 4-15 3-22-2-40-30-73-81-85-129-5-25-8-52-8-74-15 15-19 44-19 44-1 7-5 13-11 16-6 3-13 3-19 0-6-3-52-29-54-126-1-4-1-7-1-10 0-40 14-77 35-106-118 51-201 169-201 306 0 6 0 13 0 19 4 125 44 187 70 215 18-66 66-151 159-151 11 0 21 10 21 21 0 70 1 150 20 224 21 84 79 174 149 235 12-89 60-154 111-223 61-82 124-167 134-303l1-10c1-9 1-18 1-27 0-137-83-255-201-306z" horiz-adv-x="1000" />

<glyph glyph-name="diploma" unicode="&#xe813;" d="M887 643c8 0 16 8 16 16v112c0 44-36 79-81 79h-645c-45 0-80-35-80-79v-713c0-45 36-81 80-81h157v-111c0-6 3-11 7-14s11-3 16 0l78 39 78-39c2-1 5-2 7-2 3 0 6 1 9 2 4 3 7 8 7 14v111l286 0c45 0 81 36 81 81v112c0 8-8 16-16 16h-112v457h112z m-16 128v-96h-96v95c0 27 21 48 47 48 27 0 49-21 49-47z m-358-646c-2-1-4-3-6-5-20-17-45-26-71-26-28 0-54 11-75 29-24 21-37 52-37 83 0 62 50 112 112 112s112-50 112-112c0-31-13-60-35-81z m-9-233l-62 31c-4 2-10 2-14 0l-62-31v189c21-12 45-19 70-19 24 0 47 6 68 18v-188z m32 211c28 27 44 64 44 103 0 79-65 144-144 144s-144-65-144-144c0-38 15-74 42-101v-96h-157c-26 0-48 22-48 49v713c0 27 21 47 48 47h582c-10-13-16-30-16-48v-712c0-19 6-35 16-49l-223 0v94z m335 51v-96c0-27-22-49-49-49-26 0-47 22-47 49v96h96z m-435 132c-44 0-80-36-80-80s36-80 80-80 80 36 80 80-36 80-80 80z m0-128c-27 0-48 22-48 48s21 48 48 48 48-22 48-48-22-48-48-48z m213 368h-426c-9 0-16-7-16-16s7-16 16-16h426c9 0 16 8 16 16s-7 16-16 16z m-64-64h-298c-9 0-16-7-16-16s7-16 16-16h298c9 0 16 8 16 16s-7 16-16 16z m64 128h-64c-9 0-16-7-16-16s7-16 16-16h64c9 0 16 7 16 16s-7 16-16 16z m-426-32h298c9 0 16 7 16 16s-7 16-16 16h-298c-9 0-16-7-16-16s7-16 16-16z m54 88c3-2 6-3 10-3 4 0 9 2 12 6l37 48 38-48c3-4 7-6 12-6 5 0 10 2 13 6l37 48 37-48c3-4 8-6 13-6s9 2 12 6l37 48 37-48c6-7 16-8 23-3 7 6 8 16 3 23l-50 64c-3 4-8 6-13 6s-9-2-12-6l-37-48-38 48c-3 4-7 6-12 6-5 0-10-2-13-6l-37-48-37 48c-3 4-8 6-13 6-4 0-9-2-12-6l-50-64c-5-7-4-17 3-23z" horiz-adv-x="1000" />

<glyph glyph-name="contact_call" unicode="&#xe814;" d="M958 825h-699c-23 0-42-19-42-42v-193l-32 48c-15 22-44 28-67 15l-66-40c-21-12-37-33-44-57-24-87-6-238 215-458 175-176 306-223 396-223 21 0 42 3 62 8 24 7 45 23 57 44l40 66c13 23 7 52-15 67l-158 104c-21 15-50 10-66-10l-46-59c-5-7-13-8-20-5l-9 5c-29 16-64 35-137 107-7 8-14 16-21 23h652c23 0 42 18 42 42v516c0 23-19 42-42 42z m-510-759l9-5c21-12 48-6 62 13l46 59c5 7 15 8 22 4l157-105c7-5 10-15 5-22l-39-66c-9-14-22-24-38-29-78-21-216-3-426 206s-227 348-206 426c5 16 15 29 29 38l66 39c7 5 17 2 22-5l105-157c4-7 3-17-4-22l-59-46c-19-14-25-41-13-63l5-8c17-31 37-69 113-144 75-76 113-96 144-113z m519 201c0-5-4-9-9-9h-682c-22 25-40 52-56 81l-5 9c-3 7-2 15 5 20l59 46c20 16 25 45 10 66l-39 60v243c0 2 1 4 3 6 1 2 4 3 6 3h699c2 0 4-1 6-3 2-2 3-4 3-6v-516z m-67 481l-278-211c-8-6-19-6-27 0l-278 211c-8 5-18 4-24-3-5-8-4-18 3-24l279-211c20-15 47-15 67 0l278 211c4 3 6 7 7 11 0 5-1 9-4 13-5 7-16 8-23 3z m-434-239l-171-183c-6-7-6-18 1-24 7-6 17-6 24 1l170 183c6 7 5 17-1 23-7 6-17 6-23 0z m286 0c-7 6-17 7-24 0-7-6-7-16-1-23l171-183c6-7 17-7 24-1 6 6 7 17 0 24l-170 183z" horiz-adv-x="1000" />

<glyph glyph-name="contact" unicode="&#xe815;" d="M977 714h-954c-13 0-23-10-23-23v-682c0-13 10-23 23-23h954c13 0 23 10 23 23v682c0 13-10 23-23 23z m-22-627l-282 281-32-32 304-304h-890l304 304-32 32-281-281v581h909v-581z m-46 581l-409-408-409 408h-45v-18l438-439c9-8 23-8 32 0l439 439v18h-46z" horiz-adv-x="1000" />

<glyph glyph-name="clock" unicode="&#xe816;" d="M500 850c138 0 263-56 353-146 91-91 147-216 147-354 0-138-56-263-147-354-90-90-215-146-353-146s-263 56-353 146c-91 91-147 216-147 354 0 138 56 263 147 354 90 90 215 146 353 146l0 0z m255-473c15 0 27-12 27-27 0-15-12-27-27-27h-254-1c-10 0-19 6-24 14l0 0 0 0 0 1 0 0v0l0 0-1 1 0 0 0 1 0 0v0l0 0-1 1 0 0 0 0 0 0v1l0 0 0 1 0 0v0l0 0-1 1 0 0v1l0 0v0 1l0 0 0 0v1l0 0v0l0 0v1l0 0v1l0 0v0l0 0v1l0 0v326c0 15 12 26 27 26 15 0 27-11 27-26v-299h228z m60 288c-81 81-192 130-315 130s-235-49-315-130c-81-81-131-192-131-315 0-123 50-234 131-315 80-81 192-130 315-130s234 49 315 130c81 81 131 192 131 315 0 123-50 234-131 315l0 0z" horiz-adv-x="1000" />

<glyph glyph-name="building" unicode="&#xe817;" d="M983-50h-50v883c0 10-6 17-16 17h-834c-10 0-16-7-16-17v-883h-50c-10 0-17-7-17-17v-66c0-10 7-17 17-17h966c10 0 17 7 17 17v66c0 10-7 17-17 17z m-883 867h800v-867h-250v183c0 10-7 17-17 17h-133-133c-10 0-17-7-17-17v-183h-250v867z m283-867v167h100v-167h-100z m134 167h100v-167h-100v167z m450-234h-934v34h50 284 133 133 284 50v-34z m-650 884h-134c-10 0-16-7-16-17v-100c0-10 6-17 16-17h134c10 0 16 7 16 17v100c0 10-6 17-16 17z m-17-100h-100v66h100v-66z m17-84h-134c-10 0-16-6-16-16v-100c0-10 6-17 16-17h134c10 0 16 7 16 17v100c0 10-6 16-16 16z m-17-100h-100v67h100v-67z m133-33h134c10 0 16 7 16 17v100c0 10-6 16-16 16h-134c-10 0-16-6-16-16v-100c0-10 6-17 16-17z m17 100h100v-67h-100v67z m233-100h134c10 0 16 7 16 17v100c0 10-6 16-16 16h-134c-10 0-16-6-16-16v-100c0-10 6-17 16-17z m17 100h100v-67h-100v67z m-267-283h134c10 0 16 6 16 16v100c0 10-6 17-16 17h-134c-10 0-16-7-16-17v-100c0-10 6-16 16-16z m17 100h100v-67h-100v67z m233-100h134c10 0 16 6 16 16v100c0 10-6 17-16 17h-134c-10 0-16-7-16-17v-100c0-10 6-16 16-16z m17 100h100v-67h-100v67z m-383 33h-134c-10 0-16-7-16-17v-100c0-10 6-16 16-16h134c10 0 16 6 16 16v100c0 10-6 17-16 17z m-17-100h-100v67h100v-67z m133 333h134c10 0 16 7 16 17v100c0 10-6 17-16 17h-134c-10 0-16-7-16-17v-100c0-10 6-17 16-17z m17 100h100v-66h-100v66z m233-100h134c10 0 16 7 16 17v100c0 10-6 17-16 17h-134c-10 0-16-7-16-17v-100c0-10 6-17 16-17z m17 100h100v-66h-100v66z m-300-550h200c10 0 17 7 17 17 0 10-7 17-17 17h-200c-10 0-17-7-17-17 0-10 7-17 17-17z" horiz-adv-x="1000" />

<glyph glyph-name="infinity-4" unicode="&#xe818;" d="M796 570q84 0 144-53t60-167q0-112-60-166t-144-54q-78 0-157 40t-139 106q-58-66-137-106t-157-40q-86 0-146 54t-60 166q0 114 60 167t146 53q78 0 157-39t137-105q58 66 138 105t158 39z m-590-352q60 0 127 37t113 95q-46 58-112 95t-128 37q-114 0-114-132t114-132z m590 0q114 0 114 132t-114 132q-62 0-129-37t-111-95q44-58 111-95t129-37z" horiz-adv-x="1000" />

<glyph glyph-name="plus-4" unicode="&#xe819;" d="M0 209l0 282 359 0 0 359 282 0 0-359 359 0 0-282-359 0 0-359-282 0 0 359-359 0z" horiz-adv-x="1000" />

<glyph glyph-name="plus-5" unicode="&#xe81a;" d="M911 462l0-223-335 0 0-336-223 0 0 336-335 0 0 223 335 0 0 335 223 0 0-335 335 0z" horiz-adv-x="928" />

<glyph glyph-name="plus-6" unicode="&#xe81b;" d="M550 400q30 0 30-50t-30-50l-210 0 0-210q0-30-50-30t-50 30l0 210-210 0q-30 0-30 50t30 50l210 0 0 210q0 30 50 30t50-30l0-210 210 0z" horiz-adv-x="580" />

<glyph glyph-name="plus-7" unicode="&#xe81c;" d="M786 439v-107q0-22-16-38t-38-15h-232v-233q0-22-16-37t-38-16h-107q-22 0-38 16t-15 37v233h-232q-23 0-38 15t-16 38v107q0 23 16 38t38 16h232v232q0 22 15 38t38 16h107q23 0 38-16t16-38v-232h232q23 0 38-16t16-38z" horiz-adv-x="785.7" />

<glyph glyph-name="wrench-circled-1" unicode="&#xe81d;" d="M0 350q0 207 147 354t353 146 354-146 146-354-146-354-354-146-353 146-147 354z m199-201l100-100 283 284q41-16 89-6t82 44 44 81-6 89l-100-99-72 27-27 72 99 100q-25 10-54 10-69 0-115-49-36-33-45-81t5-89z m77-23q-20 21 1 42 20 20 41 0 20-21-1-42t-41 0z" horiz-adv-x="1000" />

<glyph glyph-name="clipboard" unicode="&#xe81e;" d="M678 819q65 0 110-46t46-110l0-625q0-65-46-111t-110-46l-522 0q-65 0-110 46t-46 111l0 625q0 65 46 110t110 46l522 0z m-418-104l0-52q0-21 16-37t37-16l208 0q22 0 37 16t15 37l0 52-313 0z m469-677l0 625q0 21-15 37t-36 15l-53 0 0-52q0-43-30-73t-74-31l-208 0q-43 0-74 31t-30 73l0 52-53 0q-21 0-37-15t-15-37l0-625q0-21 15-37t37-16l522 0q21 0 36 16t15 37z m-104 52l-416 0q-26 0-26 25 0 12 7 19t19 8l416 0q11 0 19-8t7-19q0-25-26-25z m0 157l-416 0q-11 0-19 7t-7 19q0 25 26 25l416 0q26 0 26-25 0-11-7-19t-19-7z m0 156l-416 0q-26 0-26 25 0 11 7 19t19 7l416 0q11 0 19-7t7-19q0-25-26-25z" horiz-adv-x="834" />

<glyph glyph-name="tools" unicode="&#xe81f;" d="M155 506q-8-8-11-22t-3-25-2-11q-2-2-17-15t-19-17q-16-14-28 4l-70 76q-11 12 2 24 2 2 18 14t20 16q6 6 27 6t37 14q14 14 18 38t10 30q2 0 9 7t26 22 41 31q134 90 186 96 122 0 148-2 12 0-8-8-120-52-152-76-80-56-36-114 34-46 38-48 8-8-2-14-2-2-38-35t-38-35q-14-8-18-4-42 48-71 60t-67-12z m286-26l410-476q18-22-2-38l-48-42q-22-14-38 4l-414 472q-8 8 0 20l72 62q12 8 20-2z m554 202q16-104-16-166-50-88-154-62-56 12-100-32l-82-78-68 78 68 70q24 24 31 53t6 65 5 58q12 56 140 112 12 6 18-3t2-15q-12-12-46-80-14-10-12-35t40-53q58-40 96 22 6 12 26 41t22 33q4 10 13 9t11-17z m-858-684l254 248 76-86-246-242q-20-20-38-4l-46 46q-22 18 0 38z" horiz-adv-x="1000" />

<glyph glyph-name="wrench-2" unicode="&#xe820;" d="M0 21l463 463q-25 68-10 145t72 134 133 72 147-10l-162-162 45-117 115-45 164 164q25-70 9-147t-73-133-132-72-148 8l-463-463z m113-2q0-20 14-34t33-13 33 13 14 34-14 33-33 14-33-14-14-33z" horiz-adv-x="982" />

<glyph glyph-name="wrench" unicode="&#xe821;" d="M214 29q0 14-10 25t-25 10-25-10-11-25 11-25 25-11 25 11 10 25z m360 234l-381-381q-21-20-50-20-29 0-51 20l-59 61q-21 20-21 50 0 29 21 51l380 380q22-55 64-97t97-64z m354 243q0-22-13-59-27-75-92-122t-144-46q-104 0-177 73t-73 177 73 176 177 74q32 0 67-10t60-26q9-6 9-15t-9-16l-163-94v-125l108-60q2 2 44 27t75 45 40 20q8 0 13-5t5-14z" horiz-adv-x="928.6" />

<glyph glyph-name="wrench-1" unicode="&#xe822;" d="M0 21l463 463q-25 68-10 145t72 134 133 72 147-10l-162-162 45-117 115-45 164 164q25-70 9-147t-73-133-132-72-148 8l-463-463z m113-2q0-20 14-34t33-13 33 13 14 34-14 33-33 14-33-14-14-33z" horiz-adv-x="982" />

<glyph glyph-name="wrench-circled" unicode="&#xe823;" d="M0 350q0 207 147 354t353 146 354-146 146-354-146-354-354-146-353 146-147 354z m199-201l100-100 283 284q41-16 89-6t82 44 44 81-6 89l-100-99-72 27-27 72 99 100q-25 10-54 10-69 0-115-49-36-33-45-81t5-89z m77-23q-20 21 1 42 20 20 41 0 20-21-1-42t-41 0z" horiz-adv-x="1000" />

<glyph glyph-name="plus" unicode="&#xe824;" d="M786 439v-107q0-22-16-38t-38-15h-232v-233q0-22-16-37t-38-16h-107q-22 0-38 16t-15 37v233h-232q-23 0-38 15t-16 38v107q0 23 16 38t38 16h232v232q0 22 15 38t38 16h107q23 0 38-16t16-38v-232h232q23 0 38-16t16-38z" horiz-adv-x="785.7" />

<glyph glyph-name="plus-1" unicode="&#xe825;" d="M550 400q30 0 30-50t-30-50l-210 0 0-210q0-30-50-30t-50 30l0 210-210 0q-30 0-30 50t30 50l210 0 0 210q0 30 50 30t50-30l0-210 210 0z" horiz-adv-x="580" />

<glyph glyph-name="plus-2" unicode="&#xe826;" d="M911 462l0-223-335 0 0-336-223 0 0 336-335 0 0 223 335 0 0 335 223 0 0-335 335 0z" horiz-adv-x="928" />

<glyph glyph-name="plus-3" unicode="&#xe827;" d="M0 209l0 282 359 0 0 359 282 0 0-359 359 0 0-282-359 0 0-359-282 0 0 359-359 0z" horiz-adv-x="1000" />

<glyph glyph-name="wrench-3" unicode="&#xe828;" d="M214 29q0 14-10 25t-25 10-25-10-11-25 11-25 25-11 25 11 10 25z m360 234l-381-381q-21-20-50-20-29 0-51 20l-59 61q-21 20-21 50 0 29 21 51l380 380q22-55 64-97t97-64z m354 243q0-22-13-59-27-75-92-122t-144-46q-104 0-177 73t-73 177 73 176 177 74q32 0 67-10t60-26q9-6 9-15t-9-16l-163-94v-125l108-60q2 2 44 27t75 45 40 20q8 0 13-5t5-14z" horiz-adv-x="928.6" />

<glyph glyph-name="klenex-2" unicode="&#xe829;" d="M905-16h-768c-25 0-44 19-44 44v380c0 24 20 44 44 44h768c24 0 44-20 44-44v-380c0-25-20-44-44-44z m-768 438c-8 0-14-6-14-14v-380c0-8 6-14 14-14h768c8 0 14 6 14 14v380c0 8-6 14-14 14h-768z m380-310c-95 0-170 46-170 105 0 58 75 104 170 104 95 0 170-46 170-104 0-59-75-105-170-105z m0 179c-76 0-140-34-140-74s64-75 140-75c76 0 140 34 140 75s-64 74-140 74z m255 131h-495l-80 206c-3 9-1 18 5 25 6 7 16 10 25 8 13-4 29-12 46-20 13-6 26-13 39-18 53-21 116-2 155 27 44 33 104-1 133-17 5-3 11-6 13-7 14-3 88-17 162 18 25 13 53 23 67 8 12-13 3-32-1-39l-69-191z m-475 30h454l63 173 0 2c1 0 1 1 2 2-6-2-15-5-28-11-82-40-160-26-182-21-5 1-11 4-20 10-26 14-73 40-101 19-56-41-128-53-184-31-14 6-28 13-41 19-11 6-22 11-31 15l68-177z m316 174c0 0 0 0 0 0 0 0 0 0 0 0z" horiz-adv-x="1000" />

<glyph glyph-name="tools-1" unicode="&#xe82a;" d="M155 506q-8-8-11-22t-3-25-2-11q-2-2-17-15t-19-17q-16-14-28 4l-70 76q-11 12 2 24 2 2 18 14t20 16q6 6 27 6t37 14q14 14 18 38t10 30q2 0 9 7t26 22 41 31q134 90 186 96 122 0 148-2 12 0-8-8-120-52-152-76-80-56-36-114 34-46 38-48 8-8-2-14-2-2-38-35t-38-35q-14-8-18-4-42 48-71 60t-67-12z m286-26l410-476q18-22-2-38l-48-42q-22-14-38 4l-414 472q-8 8 0 20l72 62q12 8 20-2z m554 202q16-104-16-166-50-88-154-62-56 12-100-32l-82-78-68 78 68 70q24 24 31 53t6 65 5 58q12 56 140 112 12 6 18-3t2-15q-12-12-46-80-14-10-12-35t40-53q58-40 96 22 6 12 26 41t22 33q4 10 13 9t11-17z m-858-684l254 248 76-86-246-242q-20-20-38-4l-46 46q-22 18 0 38z" horiz-adv-x="1000" />

<glyph glyph-name="clipboard-1" unicode="&#xe82b;" d="M678 819q65 0 110-46t46-110l0-625q0-65-46-111t-110-46l-522 0q-65 0-110 46t-46 111l0 625q0 65 46 110t110 46l522 0z m-418-104l0-52q0-21 16-37t37-16l208 0q22 0 37 16t15 37l0 52-313 0z m469-677l0 625q0 21-15 37t-36 15l-53 0 0-52q0-43-30-73t-74-31l-208 0q-43 0-74 31t-30 73l0 52-53 0q-21 0-37-15t-15-37l0-625q0-21 15-37t37-16l522 0q21 0 36 16t15 37z m-104 52l-416 0q-26 0-26 25 0 12 7 19t19 8l416 0q11 0 19-8t7-19q0-25-26-25z m0 157l-416 0q-11 0-19 7t-7 19q0 25 26 25l416 0q26 0 26-25 0-11-7-19t-19-7z m0 156l-416 0q-26 0-26 25 0 11 7 19t19 7l416 0q11 0 19-7t7-19q0-25-26-25z" horiz-adv-x="834" />

<glyph glyph-name="inhaler" unicode="&#xe82c;" d="M334-87c-19 0-23 15-24 20l-1 1c-33 110-70 235-107 357-21 70-42 140-63 210-11 38-23 76-34 114-1 2-2 4-2 7-1 1-1 3-2 4l-3 13 44 13-26 87 256 77 26-87 55 17 5-12c0-1 0-2 1-3 1-2 2-4 2-7 28-91 55-182 82-273l52-172c4-12 8-25 11-37 9-28 18-57 26-86 38 1 76 1 113 1 12 0 24 0 36 0 4 0 7 0 11 0l18 0v-41h89v-164h-89v-37l-12-1c-1 0-2 0-2 0-3 0-5 0-8 0-36 0-71 0-107 0-113 0-231 0-347-1 0 0 0 0 0 0z m-203 708c12-38 23-75 34-112 21-70 42-140 63-210 37-122 75-247 108-357l0-1c0 0 0 0 0 0 115 0 232 0 345 0 34 0 68 0 102 0v188c0 0-1 0-2 0-12 0-24 0-36 0-37 0-75 0-113 0 0 0 0 0 0 0-14 0-22 6-26 20-9 28-17 57-26 85-4 12-7 25-11 37l-52 172c-27 90-54 180-81 269l-305-91z m679-642h62v109h-62v-109z m-660 742l18-60 203 61-18 60-203-61z m184-808c-19 0-23 15-24 20l-1 1c-33 110-70 235-107 357-21 70-42 140-63 210-11 38-23 76-34 114-1 2-2 4-2 7-1 1-1 3-2 4l-3 13 355 107 5-12c0-1 0-2 1-3 1-2 2-4 2-7 28-91 55-182 82-273l52-172c4-12 8-25 11-37 9-28 18-57 26-86 38 1 76 1 113 1 12 0 24 0 36 0 4 0 7 0 11 0l18 0v-242l-12-1c-1 0-2 0-2 0-3 0-5 0-8 0-35 0-71 0-107 0-113 0-231-1-347-1 0 0 0 0 0 0z m-203 708c12-38 23-75 34-112 21-70 42-140 63-210 37-122 75-247 108-357l0-1c0 0 0 0 0 0 115 0 232 0 345 0 34 0 68 0 102 0v188c0 0-1 0-2 0-12 0-24 0-36 0-37 0-75 0-113 0 0 0 0 0 0 0-14 0-22 6-26 20-9 28-17 57-26 85-4 12-7 25-11 37l-52 172c-27 90-54 180-81 269l-305-91z" horiz-adv-x="1000" />

<glyph glyph-name="snow" unicode="&#xe82d;" d="M984 366h-108l72 76c6 6 6 16 0 22-6 6-16 5-22-1l-94-97h-294l211 210 132-5c0 0 0 0 0 0 9 0 16 7 16 15 0 9-6 16-15 16l-103 5 75 75c6 6 6 15 0 22s-16 6-22 0l-77-77-3 105c0 8-7 15-16 15-8 0-15-7-15-16l3-135-208-208v298l97 90c6 5 7 15 1 22-6 6-16 6-22 1l-76-71v106c0 9-7 16-16 16-9 0-16-7-16-16v-108l-76 72c-6 6-16 6-22 0-6-6-5-16 1-22l97-94v-294l-210 211 5 132c0 8-6 16-15 16-8 1-16-6-16-15l-4-103-75 75c-6 6-16 6-22 0s-7-16 0-22l76-77-105-3c-8 0-15-7-15-16 0-8 7-15 16-15 0 0 0 0 0 0l135 3 208-208h-296l-94 97c-6 6-15 7-22 1-6-6-6-16 0-22l73-76h-107c-9 0-16-7-16-16 0-9 7-16 16-16h104l-70-76c-6-6-6-16 1-22 3-3 6-4 10-4 4 0 9 2 12 5l89 97h300l-209-209-135 3c-9 0-16-7-16-16-1-8 6-15 15-16l105-2-75-75c-7-7-7-16 0-23 3-3 7-4 11-4 4 0 8 1 11 4l73 74 4-104c1-8 8-15 16-15 0 0 1 0 1 1 8 0 15 7 15 16l-6 132 212 212v-296l-97-94c-6-6-7-16-1-22 6-6 16-6 22 0l76 72v-106c0-9 7-16 16-16 9 0 16 7 16 16v104l76-71c3-2 7-4 10-4 5 0 9 2 12 5 6 7 5 17-1 22l-97 90v300l209-209-3-136c0-8 7-15 16-16 0 0 0 0 0 0 9 0 15 7 16 16l2 105 76-76c3-3 7-4 11-4 4 0 8 1 11 4 6 7 6 16 0 23l-74 73 104 4c8 1 15 8 14 17 0 8-7 15-16 15l-132-6-212 212h298l90-97c3-3 7-5 11-5 4 0 8 1 11 4 6 6 6 16 1 22l-71 76h106c9 0 16 7 16 16 0 9-7 16-16 16z" horiz-adv-x="1000" />

<glyph glyph-name="placeholder" unicode="&#xe82e;" d="M500 850c-194 0-352-158-352-352 0-65 19-129 53-184l279-450c5-9 15-14 25-14 0 0 0 0 0 0 10 0 20 5 25 14l272 454c32 55 50 117 50 180 0 194-158 352-352 352z m252-502l-248-412-253 408c-29 47-44 100-44 154 0 162 132 294 293 294s293-132 293-294c0-52-14-104-41-150z m-252 326c-97 0-176-79-176-176 0-96 78-175 176-175 99 0 176 80 176 175 0 97-79 176-176 176z m0-293c-65 0-118 53-118 117 0 65 53 118 118 118s117-53 117-118c0-63-51-117-117-117z" horiz-adv-x="1000" />

<glyph glyph-name="infinity-5" unicode="&#xe82f;" d="M0 350q0 93 66 159t159 66 159-66l72-69 73 70q65 65 157 65 92 0 158-66t67-159-67-159-158-66q-92 0-158 66l-72 69-73-70q-65-65-158-65t-159 66-66 159z m225 95q-39 0-67-28t-28-67q0-40 28-67t67-28 68 28l68 67-68 66q-29 29-68 29z m529-162q27 27 27 67t-27 68-67 27-67-27l-70-68 69-66q27-28 67-28t68 27z" horiz-adv-x="911" />

<glyph glyph-name="virus" unicode="&#xe830;" d="M523 749c12-6 23-13 31-24 19-28 15-65-10-88-2-2-4-6-4-10-1-15 0-29 0-44 0-5 0-7 5-8 29-5 56-17 80-33 1-1 2-1 4-2 12 12 25 25 37 38 2 1 2 4 2 7-1 34 23 65 55 70 36 5 67-16 76-51 10-41-24-83-67-81-4 0-9-2-12-4-12-11-24-23-34-33 10-22 19-42 28-63 2-4 3-8 4-12 4-16 4-16 20-16 12 0 23-1 34 0 3 0 7 2 10 4 21 23 52 29 78 15 26-12 41-41 37-68-5-31-28-54-58-57-22-2-41 5-57 21-3 3-7 5-10 5-17 0-33 0-50 0-7-32-19-61-38-89 13-13 26-25 39-38 2-1 5-1 8-1 37 2 69-28 70-66 0-36-31-67-67-67-38 1-68 32-66 70 0 3 0 7-2 9-12 12-24 25-37 38-28-19-57-32-89-38 0-18-1-35 0-53 0-2 2-5 4-7 21-20 28-49 17-75-12-27-38-43-66-40-28 2-48 17-57 43-10 27-4 51 17 71 4 4 5 7 5 13 0 15 0 31 0 48-32 6-61 18-88 37-13-13-26-26-39-39-1-1-1-4-1-6 2-35-24-66-57-70-36-4-68 19-75 53-6 35 16 69 50 77 5 1 10 2 15 1 8-1 13 3 19 9 10 10 21 20 32 30-19 27-31 55-37 86 0 1-4 4-5 4-16 0-32 0-48 0-3 0-6-3-8-5-19-19-41-26-67-19-25 7-41 24-47 50-7 30 7 59 34 73 26 13 58 8 79-14 4-4 7-6 13-6 14 1 28 0 42 1 3 0 7 2 7 4 6 31 18 58 36 85-13 12-26 25-39 38-1 1-4 1-6 1-38-2-69 26-71 65-2 34 28 66 64 68 38 1 70-31 69-70 0-3 2-8 4-11 11-12 23-24 33-34 22 10 42 20 63 28 7 3 15 4 23 6 2 1 5 5 5 7 0 15 0 31 0 47 0 2-1 5-3 6-38 33-29 94 19 113 0 0 1 1 1 1 15 0 31 0 46 0z m125-482c6-7 11-14 17-21 15 19 25 48 32 82 2 10 5 14 16 14 22 0 45 0 68 0 8 0 13-3 18-9 11-17 32-22 50-13 15 7 23 23 22 39-2 16-14 30-28 34-17 5-34-1-44-16-5-7-10-9-19-9-22 0-44 0-67 0-11 0-15 3-16 14-4 26-12 49-25 72-2 3-4 6-8 11-6-7-12-13-17-19-7 6-13 12-20 18 26 25 51 50 76 76 8 8 15 12 28 10 28-3 49 24 41 50-6 20-26 32-46 28-22-5-34-24-31-46 2-8 0-14-6-19-20-20-39-39-59-59-7-7-14-15-19-21-8 7-14 13-22 21 6 5 13 10 20 16-21 15-48 26-82 32-11 2-14 5-14 16 0 22 0 45 0 67 0 9 3 14 10 19 16 12 21 33 12 50-8 17-28 26-47 20-15-5-25-16-27-32-3-16 3-29 17-38 5-4 9-9 9-16 0-24 0-48 0-72 0-8-4-13-13-14-8-2-16-3-24-5-21-6-41-14-60-27 7-7 13-13 20-18-7-7-13-13-19-20-26 26-51 52-77 77-8 8-11 15-10 26 3 17-6 33-22 40-16 7-34 3-46-10-11-11-13-30-5-44 8-16 24-24 42-20 8 1 14-1 19-6 7-8 14-15 22-23 19-19 39-39 57-57-6-7-11-13-18-21-7 7-12 13-18 20-2-2-3-3-4-5-15-24-24-50-28-78-2-9-6-13-16-13-23 0-46 0-68 0-8 0-13 2-18 9-10 15-28 21-45 16-16-5-27-21-27-38 0-17 11-33 27-38 17-5 35 1 45 16 5 7 10 9 18 9 22 0 45 0 68 0 10 0 14-4 16-13 3-22 9-43 20-63 3-7 7-13 12-21 7 7 12 13 18 20 7-7 13-13 19-20-2-3-6-5-9-9-23-22-45-44-67-66-7-8-15-12-27-10-20 3-39-12-42-31-4-21 7-40 27-46 29-8 55 15 51 46-1 5 0 12 3 15 27 28 55 56 82 83 7-6 13-12 21-19-7-6-13-12-20-18 2-2 4-3 5-4 24-15 49-24 77-28 10-2 14-6 14-17 0-22-1-44 0-66 0-8-2-14-10-19-15-10-20-28-15-45 5-15 20-27 37-27 18 0 33 11 39 27 5 17-1 35-16 45-5 4-9 7-9 15 0 24 0 49 0 73 0 8 4 13 12 14 6 1 12 2 18 3 24 6 45 15 67 29-8 6-14 12-21 18 7 7 14 13 20 19 25-25 50-51 76-76 8-8 12-15 10-27-3-27 23-48 49-41 21 6 33 24 29 46-4 19-23 34-44 30-10-1-17 2-24 9-22 23-44 44-66 66-4 4-8 8-11 11 6 7 12 13 20 22z m-268 35c30 0 54 23 54 53 0 29-24 53-53 53-30 0-53-23-53-53 0-29 23-53 52-53z m239 106c-29 0-53-24-53-53 0-29 23-53 52-53 30 0 54 23 54 53 0 29-23 53-53 53z m-119 106c-29 0-53-24-53-53 0-29 24-53 53-53 29 0 53 24 53 53 0 29-24 53-53 53z m53-265c0 29-24 53-53 53-29 0-53-24-53-53 0-29 23-53 53-53 29 0 53 24 53 53z m-173 53c-29 0-52 24-52 53 0 30 23 53 53 53 29 0 53-24 53-53 0-30-24-53-54-53z m27 53c0 14-12 26-26 26-14 0-27-11-27-26 0-14 12-27 27-27 14 1 26 13 26 27z m212 53c30 0 53-24 53-53 0-30-24-53-54-53-29 0-52 24-52 53 0 29 24 53 53 53z m27-53c-1 14-13 26-27 26-14 0-26-12-26-26 0-15 12-27 27-27 14 1 26 13 26 27z m-146 159c29 0 53-24 53-53 0-29-24-53-53-53-29 0-53 24-53 53 0 29 23 53 53 53z m0-80c14 0 26 12 26 27 1 14-11 26-26 26-14 1-27-11-27-26 0-15 12-26 27-27z m53-185c0-29-24-53-53-53-30 0-53 24-53 53 0 29 24 53 53 53 29 0 53-24 53-53z m-27 0c0 14-11 26-26 26-14 1-26-11-27-25 0-15 12-27 27-27 14 0 26 11 26 26z" horiz-adv-x="1000" />

<glyph glyph-name="infinity-6" unicode="&#xe831;" d="M796 570q84 0 144-53t60-167q0-112-60-166t-144-54q-78 0-157 40t-139 106q-58-66-137-106t-157-40q-86 0-146 54t-60 166q0 114 60 167t146 53q78 0 157-39t137-105q58 66 138 105t158 39z m-590-352q60 0 127 37t113 95q-46 58-112 95t-128 37q-114 0-114-132t114-132z m590 0q114 0 114 132t-114 132q-62 0-129-37t-111-95q44-58 111-95t129-37z" horiz-adv-x="1000" />

<glyph glyph-name="glass-2" unicode="&#xe832;" d="M948 746q0-19-24-43l-353-353v-429h179q15 0 25-10t11-25-11-25-25-11h-500q-14 0-25 11t-11 25 11 25 25 10h179v429l-353 353q-24 24-24 43 0 13 10 21t21 9 24 3h786q13 0 24-3t21-9 10-21z" horiz-adv-x="1000" />

<glyph glyph-name="infinity-7" unicode="&#xe833;" d="M0 350q0 93 66 159t159 66 159-66l72-69 73 70q65 65 157 65 92 0 158-66t67-159-67-159-158-66q-92 0-158 66l-72 69-73-70q-65-65-158-65t-159 66-66 159z m225 95q-39 0-67-28t-28-67q0-40 28-67t67-28 68 28l68 67-68 66q-29 29-68 29z m529-162q27 27 27 67t-27 68-67 27-67-27l-70-68 69-66q27-28 67-28t68 27z" horiz-adv-x="911" />

<glyph glyph-name="ac" unicode="&#xe834;" d="M417 625c-184 0-334-149-334-333s150-334 334-334 333 150 333 334-149 333-333 333z m300-333c0-50-12-96-34-137v274c22-42 34-88 34-137z m-367 292c16 4 33 6 50 7v-599c-17 1-34 4-50 7v585z m-33-575c-18 6-34 14-50 23v519c16 9 32 17 50 23v-565z m116 582c17-1 34-3 50-7v-585c-16-3-33-6-50-7v599z m84-17c17-6 34-14 50-23v-519c-16-9-33-17-50-23v565z m-367-145v-274c-21 41-33 87-33 137s12 95 33 137z m33-325v376c15 18 32 34 50 49v-474c-18 14-35 30-50 49z m417-49v474c19-15 35-31 50-49v-376c-15-19-31-35-50-49z m100-113h233v100h-233v-100z m33 66h167v-33h-167v33z m117 717h133c10 0 17 7 17 17s-7 16-17 16h-133c-31 0-57-21-64-50h-34c8 48 49 84 98 84h117c9 0 16 7 16 16s-7 17-16 17h-117c-68 0-124-51-132-117h-718v-833h1000v833h-179c6 10 17 17 29 17z m117-817h-934v767h934v-767z" horiz-adv-x="1000" />

<glyph glyph-name="big-ac" unicode="&#xe835;" d="M985 773c8 0 15 7 15 15v6c0 31-25 56-56 56h-888c-31 0-56-25-56-56v-238c0-30 25-56 56-56h888c31 0 56 26 56 56v169c0 8-7 15-15 15s-14-7-14-15v-169c0-14-12-26-27-26h-68v126c0 19-15 34-34 34h-684c-19 0-34-15-34-34v-126h-68c-15 0-27 12-27 26v238c0 15 12 27 27 27h888c15 0 27-12 27-27v-6c0-8 6-15 14-15z m-832-191h35c8 0 15 7 15 15s-7 15-15 15h-35v44c0 2 3 5 5 5h684c3 0 5-3 5-5v-44h-597c-8 0-14-7-14-15s6-15 14-15h597v-52h-694z m0 0m13 216c-23 0-42-19-42-42s19-42 42-42h102c23 0 42 19 42 42s-19 42-42 42z m114-42c0-7-5-12-12-12h-102c-7 0-13 5-13 12 0 7 6 13 13 13h102c7 0 12-6 12-13z m0 0m322-466h-204c-16 0-30-14-30-31v-379c0-16 14-30 30-30h204c16 0 30 14 30 30v72c0 8-7 15-15 15s-14-7-14-15v-72c0 0-1-1-1-1h-204c0 0 0 1 0 1v147h205v-12c0-8 6-15 14-15s15 7 15 15v244c0 17-14 31-30 31z m-204-30h204c0 0 1 0 1-1v-27h-205v27c0 1 0 1 0 1z m0-204v147h205v-147z m0 0m51-49c-12 0-22-10-22-22v-63c0-12 10-22 22-22h102c12 0 22 10 22 22v63c0 12-10 22-22 22z m95-78h-88v49h88z m0 0m-15 262c-24 0-44-20-44-44s20-44 44-44 44 20 44 44-19 44-44 44z m0-59c-8 0-14 7-14 15s6 15 14 15 15-7 15-15-7-15-15-15z m0 0m-41-29h-50c-9 0-15-7-15-15s6-14 15-14h50c8 0 15 6 15 14s-7 15-15 15z m0 0m66 251c-16 12-34 18-54 18-19 0-38-6-54-18-6-5-7-14-2-21 2-3 7-5 11-5 3 0 6 1 9 3 11 7 23 12 36 12 13 0 26-5 36-12 6-5 16-4 20 3 5 6 4 15-2 20z m0 0m24 17c4 7 3 16-3 21-22 16-48 25-75 25-27 0-53-9-75-25-6-5-7-14-2-21 2-4 7-6 11-6 3 0 6 1 9 3 17 13 36 20 57 20 21 0 40-7 57-19 6-5 16-4 21 2z m0 0m20 37c5 7 3 16-3 21-28 20-60 31-95 31-34 0-67-11-95-31-6-5-7-14-3-21 3-4 8-6 12-6 3 0 6 1 9 3 22 17 49 26 77 26 28 0 55-9 77-26 7-5 16-3 21 3z m0 0" horiz-adv-x="1000" />

<glyph glyph-name="warehouse-1" unicode="&#xe836;" d="M475 700l-475-275 100 0 0-400c0-25 22-50 50-50l150 0 0 250c0 28 22 50 50 50l350 0c28 0 49-22 50-50l0-250 150 0c28 0 50 22 50 50l0 400 100 0-475 275c-21 12-42 25-50 25-8 0-28-12-50-25z m-125-475l0-50 350 0 0 50z m0-100l0-50 350 0 0 50z m0-100l0-50 350 0 0 50z" horiz-adv-x="1050" />

<glyph glyph-name="ruler-1" unicode="&#xe837;" d="M0 144q0-31 22-54l180-180q20-20 46-22t50 12l-96 96 41 41 97-97 42 41-98 97 41 41 97-96 42 40-97 98 40 40 98-96 39 39-98 96 42 42 97-97 41 41-97 97 41 41 97-97 41 41-97 97 41 41 97-97 41 41-97 98 41 40 98-97 41 42-98 97 41 41 96-95q13 22 10 48t-21 45l-180 180q-23 22-54 22t-55-23l-589-590q-23-22-23-54z" horiz-adv-x="922.9" />

<glyph glyph-name="bacteria" unicode="&#xe838;" d="M631-150v114l-54 8-14-60-29 6c3 20 7 40 10 60l-63 20c-10-29-20-57-31-87l-29 9 29 91-57 29-73-117-27 16 73 117-40 31-71-85-25 19 71 86-37 34-45-29-17 25 42 29c-13 17-25 33-37 50l-85-56-17 26 85 57-26 50-108-53-15 27 110 56-14 40-100-28-8 30 99 29-11 66-65-11-5 29 66 14v51h-113v32c33 0 67 0 100 1 6 0 15 5 18 10 6 14 9 29 14 44l-44 30 18 25 44-28 25 29-74 89 24 20 74-88c27 12 27 12 27 37q0 53 1 106h31v-117l67 5c5 20 9 41 15 65l30-4-13-67 45-19 53 66 25-19c-17-22-34-43-51-65l31-32 113 55c4-9 9-17 14-27l-108-55 19-57 79 12c2-9 4-18 7-30l-83-15c-2-34 8-65 28-95l41 39 22-23-43-38c24-24 49-37 78-42 5-1 14 5 17 10 23 40 45 80 68 122l27-16c-22-40-43-78-65-117l91-20 44 72 27-16c-15-24-29-48-39-66l60-62 88 38c4-10 8-18 13-29l-88-38c6-28 10-55 17-81 1-5 11-11 18-12 31-2 63-1 95-2v-31c-35 0-69 1-104 1a19 19 0 0 1-14-10c-5-15-8-30-12-45l90-60-18-27-89 59-25-31 39-54-25-18-39 51-36-23c12-26 24-51 37-77l-28-13-39 78-75-8v-112z m-486 662c8-141 56-259 149-353 110-113 244-171 403-162 103 6 178 112 154 213-20 85-90 138-181 142-30 1-62 5-90 17-78 36-110 102-113 186-6 110-121 180-223 138-69-30-103-92-99-181z m855 111h-32l-21-39 34-26c-10-10-16-17-28-29-9 11-16 26-27 32-9 5-24 1-40 1v-65h-31c0 15-2 32 1 48 3 21-11 28-26 37l-31-18-17 25 30 21c-3 15-6 29-11 49l-30-43-25 17c6 10 11 18 16 27-21 24-41 0-63-1-3 9-6 17-10 28l29 11c-2 40-39 28-58 41 4 28 4 28 56 19 2 17 3 33 4 50l-7 2 26 14 10-15c21 0 26 9 24 41h31c1-10 2-20 3-31l35-4 16 25 26-13c-3-9-6-16-9-23l27-15 56 41c7-9 12-17 18-25l-49-38 28-42 22 9 13-27-26-14c2-12 3-24 5-36l31-2z m-64 29c0 84-60 139-143 134-30-1-50-19-51-45-1-29 15-47 46-52 35-5 44-16 51-51a73 73 0 0 1 17-34c14-15 33-16 51-7 24 11 30 31 29 55z m-518-93a96 96 0 1 0-95 97 94 94 0 0 0 95-97z m-97 65a64 64 0 0 1-63-65 64 64 0 1 1 129 2 63 63 0 0 1-66 63z m389-387a64 64 0 0 0 64-66 65 65 0 0 0-64-63 66 66 0 0 0-65 66 65 65 0 0 0 65 63z m32-65a34 34 0 0 1-32 33 33 33 0 1 1-1-65 34 34 0 0 1 33 32z m-290 48a64 64 0 1 0-1-127 64 64 0 1 0 1 127z m32-64a33 33 0 0 1-32 33 32 32 0 1 1-1-65 33 33 0 0 1 33 32z m17 149c1 27 23 45 51 44 26-2 45-23 44-51a47 47 0 0 0-51-44c-26 2-45 23-44 51z m71-3c-11 8-18 16-23 14a25 25 0 0 1-15-15c-1-4 9-14 14-14 6 0 13 7 24 15z m-234 31a49 49 0 0 0-48-47 48 48 0 1 0 48 47z m-47 25c-7-11-16-18-15-23 1-6 9-12 14-18 5 5 15 10 15 16 1 6-7 13-13 25z" horiz-adv-x="1000" />

<glyph glyph-name="cat" unicode="&#xe839;" d="M1276 392c-4 8-9 15-12 23-3 5-5 6-10 3-32-17-64-34-97-51-14-7-27-14-41-21a264 264 0 0 1-15 71c-5 15-11 29-17 43a16 16 0 0 0-1 8c1 8 2 16 4 24 4 21 8 43 11 64 3 19 6 38 9 56 3 23 8 46 12 69 3 18 23 149 28 169-16-5-28-9-40-14-10-3-19-8-28-11-21-8-41-15-61-23-22-8-43-17-64-25-15-6-30-11-45-17-32-12-63-24-94-36-12-4-24-9-36-4a90 90 0 0 1-16 4c-19 4-38 8-57 10a743 743 0 0 1-81 6 468 468 0 0 1-71-6c-22-4-44-10-66-14-9-2-17-4-26 0-28 11-56 22-84 32-47 18-95 36-142 54l-103 38-15 6-2-2c2-8 4-16 5-24 5-27 8-55 13-81s9-55 14-82c5-29 10-57 14-86 6-35 11-70 17-106a16 16 0 0 0 0-7c-6-16-12-32-18-49q-5-15-9-32s-3-19-2-24c-42 28-86 43-130 68-7-12-13-24-20-37 37-19 144-75 144-78 0-16 0-31 0-49h-133v-41c3 0 6-1 8-1l122-1a12 12 0 0 0 5 0c1-1 4-2 4-4 6-20 11-40 17-61l-101-48c-17-8-34-16-52-24a6 6 0 0 1-2-5c5-11 10-21 15-31l156 71c3-4 5-7 6-9a472 472 0 0 1 77-107 509 509 0 0 1 138-100 421 421 0 0 1 132-42 821 821 0 0 1 110-8c27 0 54 4 81 9a665 665 0 0 1 67 16c12 3 24 9 36 13a467 467 0 0 1 135 81 362 362 0 0 1 62 66c13 18 25 35 37 53a333 333 0 0 1 16 31c23-10 45-20 67-30q50-24 100-48c5-2 7-1 9 3 3 7 6 14 9 21 5 9 5 10-4 14-25 12-50 24-75 35-28 13-57 26-85 38-6 3-6 6-4 11 4 14 9 28 12 43 2 5 3 7 9 7 16 0 33 1 49 1q47 0 94-1c6 0 9 2 9 8-1 8 0 15 0 23 0 13 0 13-12 13-44-1-87-1-131-2-7 0-10 2-9 10a211 211 0 0 1 1 27 9 9 0 0 0 6 10c15 7 30 15 44 23 8 4 47 24 53 28 17 8 33 17 49 25 8 4 9 6 5 14z m-562-173c-23-27-46-53-68-80-3-3-6-7-9-10-3-5-8-5-12-1q-26 32-52 63c-8 10-17 19-25 29-2 3-4 8-3 10 2 3 6 4 10 6l0-1h151c5 0 10 1 11-5a16 16 0 0 0-3-11z" horiz-adv-x="1278" />

<glyph glyph-name="dust" unicode="&#xe83a;" d="M201-150a15 15 0 0 0-11 25l78 85a314 314 0 0 0-30 36 395 395 0 0 0-52 104l-126-81a15 15 0 0 0-16 25l133 85a625 625 0 0 0-20 131h-142a15 15 0 1 0 0 30h141c0 3 0 6 0 9s0 7 0 11a14 14 0 0 0 0 4 520 520 0 0 0 26 151l-98 53a15 15 0 0 0 15 26l94-51a433 433 0 0 0 84 134l-69 62a15 15 0 1 0 20 22l70-64a347 347 0 0 0 47 36 93 93 0 0 0-13 46c0 67 75 121 167 121s166-54 166-121a93 93 0 0 0-11-43 352 352 0 0 0 71-57l51 59a15 15 0 0 0 22-19l-53-62a448 448 0 0 0 74-135l72 42a15 15 0 1 0 15-25l-77-46a525 525 0 0 0 19-143v-1l117-10a15 15 0 1 0-2-29l-115 9a668 668 0 0 0-19-141l95-58a15 15 0 0 0-16-25l-87 54a383 383 0 0 0-46-97l88-78a15 15 0 1 0-19-22l-87 76c-59-72-144-110-255-110-84 0-156 25-212 72l-78-85a15 15 0 0 0-11-5z m-15 431c6-240 123-383 316-383 248 0 311 196 316 373-101-69-207-102-316-100h0c-153 2-268 74-316 110z m331 419v-500c103 2 205 38 302 107a493 493 0 0 1-22 139 9 9 0 0 0 0 1c-45 143-153 246-280 253z m-331-382c25-21 142-109 301-117v499c-120-7-224-100-272-232a17 17 0 0 0-1-2 487 487 0 0 1-28-148z m313 502c-76 0-137-40-137-90a63 63 0 0 1 9-32 284 284 0 0 0 258 3 63 63 0 0 1 7 28c0 51-62 91-137 91z" horiz-adv-x="979" />

<glyph glyph-name="mold" unicode="&#xe83b;" d="M822 92a135 135 0 1 0-135 135 135 135 0 0 0 135-135z m-135 231a32 32 0 1 1 32-32 32 32 0 0 1-32 32z m123-44a20 20 0 1 1 20-20 20 20 0 0 1-20 20z m67-69a29 29 0 1 1 29-29 29 29 0 0 1-29 29z m-15-221a32 32 0 1 1 32-32 32 32 0 0 1-32 32z m-360 56a25 25 0 1 1 24-25 25 25 0 0 1-24 25z m53-107a18 18 0 1 1 18-19 18 18 0 0 1-18 19z m120-37a25 25 0 1 1 24-24 25 25 0 0 1-24 24z m101 24a17 17 0 1 1 17-17 17 17 0 0 1-17 17z m-221 331a17 17 0 1 1 18-17 17 17 0 0 1-18 17z m339-177a12 12 0 1 1 12-13 12 12 0 0 1-12 13z m-417 92a15 15 0 1 1 15-15 15 15 0 0 1-15 15z m-183 553a175 175 0 1 1 175-175 175 175 0 0 1-175 175z m0 124a42 42 0 1 1 42-42 42 42 0 0 1-42 42z m159-58a26 26 0 1 1 26-25 26 26 0 0 1-26 26z m87-88a38 38 0 1 1 38-38 38 38 0 0 1-38 38z m-19-286a42 42 0 1 1 41-42 42 42 0 0 1-41 42z m-467 72a32 32 0 1 1 32-32 32 32 0 0 1-32 32z m69-139a24 24 0 1 1 24-24 24 24 0 0 1-24 24z m155-47a32 32 0 1 1 32-32 32 32 0 0 1-32 32z m132 31a23 23 0 1 1 22-22 23 23 0 0 1-23 22z m-287 429a23 23 0 1 1 23-23 23 23 0 0 1-23 23z m439-230a16 16 0 1 1 16-16 16 16 0 0 1-16 16z m-540 120a20 20 0 1 1 20-20 20 20 0 0 1-20 20z" horiz-adv-x="908" />

<glyph glyph-name="pollen" unicode="&#xe83c;" d="M669 503c1-13 3-26 4-38q3-78 5-155c0-15-11-24-27-24-25 0-51 0-76 1-37 2-75 4-113 7-1-8-2-18-3-27-7-54-22-105-40-156-3-9-6-17-9-25-4-13-11-18-23-18a26 26 0 0 0-24 18c-32 91-83 171-149 242-18 18-36 37-50 58a298 298 0 0 0 10 347c2 2 3 3 5 6-14 6-27 12-41 17a230 230 0 0 1-80 14c-19 0-38 0-58 0v48c0 0 1 0 1 0 35 0 71 3 106-3a302 302 0 0 0 101-36 8 8 0 0 1 12 1c62 52 134 75 214 69a289 289 0 0 0 187-86c41-40 85-76 136-102a326 326 0 0 1 102-35 90 90 0 0 0 12-1 51 51 0 0 0 16-7c15-11 13-29-3-38-26-14-53-28-80-41a383 383 0 0 0-108-33c-9-1-18-2-27-3z m-285-339a28 28 0 0 1 2 5c7 26 15 53 20 80 6 27 10 55 5 84-2 8 3 15 11 20s17 7 24 1c15-11 31-15 49-18 40-6 80-6 121-5 4 0 9 1 13 1a25 25 0 0 1 0 3c0 34 0 68-2 101-1 27-5 54-19 79a21 21 0 0 0 3 24c6 7 14 9 23 9a278 278 0 0 1 48-1c41 5 78 20 115 37a19 19 0 0 1 3 2c-5 2-9 4-12 5-78 29-143 76-201 135-62 63-138 88-224 71-97-20-162-78-190-173-28-95-6-180 65-251a737 737 0 0 0 119-156c9-17 18-35 28-53z m609 171a24 24 0 1 1 24 23 24 24 0 0 1-24-23z m-388-219a24 24 0 0 1-24 25 24 24 0 1 1 0-49 24 24 0 0 1 24 24z m218 218a24 24 0 0 1-23 24 24 24 0 0 1-2-48 25 25 0 0 1 25 24z m-24-242a24 24 0 0 1 24 24 25 25 0 0 1-24 25 24 24 0 0 1 0-49z m-218-194a24 24 0 1 1 0-48 24 24 0 0 1 0 48z" horiz-adv-x="1041" />

<glyph glyph-name="85particles" unicode="&#xe83d;" d="M272 332c0-20-4-38-11-54-7-16-16-29-28-40-12-12-26-20-42-26-17-6-35-9-54-9-20 0-37 3-54 9-17 6-31 14-43 26-11 11-21 25-28 40-7 16-10 34-10 54 0 13 2 26 6 39 4 12 10 24 17 35 8 11 18 20 30 29 12 9 27 15 43 19v2c-27 10-47 25-60 45-12 20-19 40-19 61 0 17 3 32 9 46 6 13 14 25 25 35 10 10 22 17 37 23 14 5 30 8 46 8s33-3 47-8c15-6 27-13 37-23 11-10 19-22 25-35 6-14 9-29 9-46 0-21-6-41-19-61-13-20-33-35-59-45v-2c16-5 31-12 43-20 12-9 22-18 30-29 8-11 14-23 17-35s6-25 6-38z m-14 0c0 17-4 33-10 47-6 15-14 27-26 37-11 11-23 19-38 25-14 5-30 9-47 9s-33-3-47-9c-14-6-27-14-38-25-11-11-20-23-26-37-7-14-9-30-9-47 0-16 2-32 9-46 5-14 13-27 24-37 11-10 23-18 38-24 15-7 31-9 49-9 18 0 35 2 49 9 15 6 28 14 38 24 11 11 19 23 25 37 6 14 9 30 9 46z m-18 231c0 14-3 28-8 40-6 13-13 23-23 32-9 9-20 15-33 20-12 5-26 7-40 7-14 0-28-2-41-7-12-5-23-11-33-20-9-9-16-19-22-32-5-12-8-25-8-40 0-14 3-27 8-39 6-12 13-23 22-33 9-9 20-16 33-22 13-6 27-9 41-9s29 3 42 9c12 6 23 13 33 22 9 10 16 21 21 33 5 12 8 25 8 39z m319-214c0-24-4-45-12-63-8-18-19-34-32-46-13-12-28-22-44-28-17-6-34-9-51-9-30 0-54 6-74 16-20 12-37 26-50 44l12 9c12-17 28-31 46-41 18-10 40-15 66-15 15 0 30 3 45 9 15 5 28 13 40 25 11 11 21 25 29 41 7 17 11 36 11 58 0 19-3 36-9 52-6 16-15 30-26 42-12 12-25 21-41 28-16 6-35 10-56 10-15 0-30-3-44-7-15-4-28-10-41-16l4 209h208v-13h-194l-4-177c12 6 25 10 39 12 14 2 26 3 38 3 22 0 41-3 58-11 17-7 32-17 44-30 12-12 22-27 28-45 6-17 10-36 10-57z m49 230c-27 0-48 21-48 47 0 27 21 47 48 47 26 0 47-20 47-47 0-26-21-47-47-47z m0 81c-19 0-35-14-35-34 0-19 16-34 35-34 18 0 33 14 33 34 0 20-15 34-33 34z m-1-194l-12 6 125 207 11-6-124-207z m112 5c-26 0-47 21-47 47 0 26 21 47 47 47 27 0 48-21 48-47 0-26-21-47-48-47z m0 81c-18 0-33-14-33-34 0-19 15-34 33-34 19 0 35 14 35 34s-16 34-35 34z m301 22c5 18-6 36-23 42-18 5-37-6-42-24s7-36 24-41c17-6 37 6 41 23z m96 75c2 8-3 17-11 19-8 2-16-3-19-11-2-8 3-17 11-19 8-2 17 3 19 11z m-131-419c8 4 11 13 7 21-4 7-14 10-21 6-8-4-11-13-7-21 4-7 14-10 21-6z m-11-102c2 8-3 17-11 19-8 2-16-3-19-11-2-8 3-17 11-19 8-2 17 3 19 11z m50 334c-17 0-17-35 1-35 26 0 26 36-1 35z m-10-262c-18 0-18-36 0-35 27 0 26 35 0 35z m-26 403c-18-1-17-36 0-36 27 1 27 36 0 36z m-131 142c12 3 20 16 17 30-3 12-16 20-30 17-12-3-21-16-17-30 3-13 17-21 30-17z m6 31c-7 11-28-2-22-13 10-17 32-5 22 13z m48-507c-12 22-28 50-29 76 0 12 10 26 13 37 4 17 6 36-4 51-10 15-33 25-50 18-15-6-23-22-28-37-5-16-5-34-8-51-2-18-6-37-11-55-5-16-4-36-2-53 3-22 11-47 32-59 21-12 50-11 70 3 25 16 28 45 17 70z m-71-42c0 9 18 10 18 0 1-14-17-14-18 0z m-5 194c-1 16 25 18 25 1 1-16-25-17-25-1z m-10-143c0 16 12 30 28 30 15 1 29-12 30-27 1-16-12-30-28-31-15 0-29 13-30 28z m250-57c-3-7-19-26 4-42 58-43 79 75 43 109-26 26-103 12-96-35 5-32 33-7 47-19 3-4 6-7 2-13z m35 48c3-10-4-20-13-22-10-3-20 4-22 13-3 10 4 20 13 22 10 2 20-4 22-13z m7-30c1-4-1-8-5-9-4 0-7 2-8 5-1 4 1 7 5 9 3 0 7-2 8-5z m-193 487c-5-2-23-3-20-23 6-51 78-4 78 32 1 26-44 60-65 33-14-19 12-21 13-34 0-4-1-7-6-8z m43 5c-4-6-12-8-18-4-7 4-8 12-4 18 4 6 12 8 18 4 6-4 7-12 4-18z m-13-19c-1-2-4-3-7-1-2 1-3 4-1 7 1 2 4 3 7 1 2-1 2-5 1-7z m-930 82h-5v47h15c9 0 16-3 16-12 0-7-6-12-13-12l14-23h-5l-14 22h-8l0-22 0 0z m0 26h8c8 0 13 3 13 9 0 6-5 8-12 8h-9c0 0 0-17 0-17z m75-22h26v-4h-31v47h30v-4h-25v-16h23v-5h-23l0-18 0 0z m93 4l0 0 16 40h8v-48h-5v41h0l-17-41h-3l-18 41h0v-41h-5v47h8l16-39z m93-10c-14 0-25 11-25 26s11 25 25 25c14 0 24-11 24-25 0-15-10-26-24-26z m0 47c-13 0-20-10-20-21 0-11 7-21 20-21s19 10 19 21-7 21-19 21z m82-39l0 0 16 41h5l-19-47h-5l-17 47h5l15-41z m67-2h25v-4h-30v47h30v-4h-25v-16h23v-5h-23v-18l0 0z m92 36c-2 3-5 5-9 5-5 0-10-3-10-9 0-7 5-8 10-10 7-2 14-4 14-14 0-10-8-14-15-14-6 0-12 3-16 8l5 3c2-3 5-6 11-6 5 0 10 3 10 9 0 7-6 8-12 10-6 2-13 5-13 14 0 9 9 12 16 12 6 0 11-2 13-5l-4-3z m-483-121l0 0 16 40h8v-48h-5v42h0l-17-42h-3l-18 42h0v-42h-5v48h8l16-40z m93-9c-14 0-25 10-25 25s11 25 25 25 24-10 24-25c0-14-10-25-24-25z m0 46c-13 0-20-10-20-21 0-11 7-21 20-21s19 10 19 21-7 21-19 21z m74-45h-5v48h14c9 0 16-4 16-13 0-7-5-11-12-12l14-23h-6l-13 23h-8c0 0 0-23 0-23z m0 27h8c8 0 12 3 12 8 0 6-4 9-12 9h-8l0-17 0 0z m74-22h26v-5h-30v48h29v-4h-25v-17h23v-4h-23l0-18 0 0z m134-5h-4v44h-16v4h37v-4h-16l-1-44 0 0z m58 48h5v-21h26v21h4v-48h-4v23h-26v-23h-5v48z m82-48h-5l20 48h5l21-48h-6l-5 13h-25l-5-13z m7 17h21l-10 26-11-26z m109-10l0 0 0 41h4v-48h-5l-28 41h0v-41h-5v48h6l28-41z m-655-573h14c9 0 16-4 16-12 0-9-7-13-16-13h-9v-23h-5l0 48 0 0z m5-21h8c8 0 12 3 12 8 0 6-4 9-12 9h-8v-17z m64-27h-5l20 48h5l20-48h-5l-5 13h-24l-6-13z m7 17h21l-10 26-11-26z m80-17h-5v48h14c10 0 16-3 16-12 0-8-5-12-12-13l14-22h-6l-13 22h-8l0-23 0 0z m0 27h9c7 0 12 3 12 9 0 6-5 8-12 8h-9l0-17 0 0z m84-27h-4v44h-16v4h37v-4h-16v-44z m63 0h-5v48h4v-48z m87 8c-4-5-10-9-18-9-15 0-25 10-25 25 0 15 11 25 25 25 7 0 13-3 17-7l-4-3c-3 3-7 6-13 6-13 0-20-10-20-21 0-11 7-21 20-21 5 0 10 2 14 7l4-2z m47-3h22v-5h-27v48h5l0-43 0 0z m69 0h25v-5h-30v48h30v-4h-25v-17h23v-4h-23v-18z m92 35c-2 3-5 5-9 5-5 0-10-3-10-9 0-6 5-8 10-9 7-2 14-5 14-14 0-10-8-14-15-14-6 0-12 2-16 7l5 3c2-3 5-6 11-6 5 0 10 4 10 10 0 6-6 8-12 10-6 2-13 4-13 13 0 9 9 13 16 13 6 0 11-3 13-6l-4-3z m-594-179h9c7 0 13-1 13-9 0-4-3-7-8-8l9-15h-4l-10 14h-5v-15h-4l0 33 0 0z m4-14h4c4 0 10 0 10 5 0 5-4 6-8 6h-6l0-11 0 0z m24 0c2 3 6 4 9 4 6 0 9-4 9-10v-9c0-1 0-3 0-4h-3c0 1 0 3 0 3h0c-2-2-4-4-8-4-4 0-8 2-8 7 0 7 8 7 14 7h1v1c0 3-2 5-5 5-3 0-5-1-7-3l-2 3z m11-8c-5 0-8-2-8-5 0-2 3-3 5-3 4 0 7 2 7 6v1h-4z m14 6c0 2 0 4 0 5h3c0-1 0-3 0-4h0c1 3 4 5 7 5 6 0 9-4 9-9v-14h-4v13c0 4-1 6-5 6-5 0-7-3-7-8v-11h-3l0 17 0 0z m48-16c0-7-5-12-12-12-4 0-8 1-11 5l3 2c2-2 4-4 8-4 6 0 8 5 8 9v3h0c-2-3-4-4-8-4-7 0-11 5-11 12 0 7 4 11 11 11 3 0 6-1 8-4h0v3h4c0 0 0-21 0-21z m-12 2c5 0 8 4 8 8 0 5-3 8-8 8-4 0-8-4-8-8 0-4 4-8 8-8z m21 30c1 0 2-1 2-2 0-1-1-3-2-3s-3 2-3 3c0 1 1 2 3 2z m-2-11h4v-22h-4v22z m11-5c0 2-1 4-1 5h4c0-1 0-3 0-4h0c1 3 4 5 7 5 6 0 8-4 8-9v-14h-3v13c0 4-2 6-5 6-5 0-7-3-7-8v-11h-4l1 17 0 0z m48-16c0-7-5-12-12-12-5 0-8 1-11 5l2 2c3-2 5-4 9-4 6 0 8 5 8 9v3h0c-2-3-5-4-8-4-7 0-11 5-11 12 0 7 4 11 11 11 3 0 6-1 8-4h0v3h4l0-21 0 0z m-12 2c5 0 8 4 8 8 0 5-3 8-8 8-5 0-8-4-8-8 1-4 4-8 8-8z m34 30c1 0 2-1 2-2 0-1-1-3-2-3s-3 2-3 3c0 1 1 2 3 2z m-2-11h3v-22h-3v22z m11-5c0 2 0 4 0 5h3c0-1 0-3 0-4h0c1 3 4 5 7 5 6 0 9-4 9-9v-14h-4v13c0 4-1 6-5 6-5 0-7-3-7-8v-11h-3l0 17 0 0z m39-11c2-2 3-3 6-3 2 0 5 1 5 3 0 3-3 3-5 4-4 1-8 2-8 7 0 4 4 6 9 6 3 0 6-1 7-4l-3-2c-1 1-2 2-4 2-3 0-5-1-5-2 0-2 3-3 6-4 4 0 7-2 7-6 0-5-4-7-9-7-3 0-6 1-8 4l2 2z m22 27c2 0 3-1 3-2 0-1-1-3-3-3s-2 2-2 3c0 1 1 2 2 2z m-2-11h4v-22h-4v22z m9-19l13 16h-12v3h17v-3l-13-16h14v-3h-18c-1 0-1 3-1 3z m43 1c-3-3-6-4-10-4-7 0-11 5-11 11 0 7 5 12 11 12 6 0 10-5 10-12v-1h-17c0-4 3-7 7-7 3 0 5 1 7 3l3-2z m-4 9c0 4-2 6-6 6-4 0-7-2-7-6h13z m41-9l0 0c-1-2-4-4-8-4-6 0-11 5-11 12 0 6 5 11 12 11 3 0 5-1 7-4h0v17h4v-36h-4l0 4 0 0z m-7 15c-5 0-8-3-8-8 0-5 3-8 8-8 4 0 7 3 7 8 0 5-3 8-7 8z m28 4c7 0 12-5 12-12s-5-11-12-11c-6 0-12 4-12 11s6 12 12 12z m0-20c5 0 8 4 8 9 0 4-3 8-8 8-4 0-8-4-8-8 0-5 3-9 8-9z m41-3h-4l-6 17h0l-5-17h-4l-7 22h4l5-17h0l6 17h4l6-17h0l5 17h4l-8-22z m11 17c0 2 0 4 0 5h4c0-1 0-3 0-4h0c1 3 3 5 7 5 6 0 8-4 8-9v-14h-3v13c0 4-2 6-5 6-5 0-7-3-7-8v-11h-4l0 17 0 0z m52 2h-7v-11c0-3 0-5 3-5 1 0 2 1 4 1l0-3c-2-1-3-1-5-1-5 0-6 3-6 7v12h-5v3h5v6h4v-6h6l1-3 0 0z m14 4c7 0 12-5 12-12s-5-11-12-11c-7 0-12 4-12 11s6 12 12 12z m0-20c5 0 8 4 8 9 0 4-3 8-8 8-4 0-8-4-8-8 1-5 4-9 8-9z m37 16h1c3 0 8 1 8 6 0 3-3 6-6 6-3 0-5-2-6-4l-4 1c1 4 5 6 10 6 5 0 9-3 9-8 0-4-2-7-6-8v0c5-1 7-4 7-8 0-7-5-10-10-10-6 0-9 2-11 7l4 1c1-3 3-5 7-5 3 0 6 3 6 7 0 5-4 6-8 6h-1l0 3 0 0z m33-2c0 2 0 4 0 5h3c0-1 0-3 0-4h0c1 3 4 5 8 5 4 0 6-3 6-5 2 3 4 5 7 5 6 0 8-4 8-10v-13h-3v13c0 3-1 6-6 6-3 0-5-2-5-6v-13h-4v13c0 4-1 6-4 6-5 0-7-3-7-8v-11h-4l1 17 0 0z m42 16c2 0 3-1 3-2 0-1-1-3-3-3-1 0-2 2-2 3-1 1 1 2 2 2z m-2-11h4v-22h-4v22z m27-5c-1 2-3 2-5 2-5 0-8-3-8-8 0-5 3-8 8-8 2 0 4 1 5 3l3-3c-2-2-5-3-8-3-7 0-12 4-12 11 0 7 5 12 12 12 3 0 6-1 8-4l-3-2z m7 0c0 2-1 4-1 5h4c0-1 0-3 0-4h0c1 3 4 5 7 5 1 0 1 0 2-1l-1-3c0 0-1 0-1 0-5 0-7-3-7-8v-11h-4l1 17 0 0z m26 6c7 0 12-5 12-12s-5-11-12-11c-7 0-12 4-12 11s5 12 12 12z m0-20c5 0 8 4 8 9 0 4-3 8-8 8-5 0-8-4-8-8 0-5 3-9 8-9z m17 14c0 2 0 4 0 5h4c0-1 0-3 0-4h0c1 3 3 5 7 5 6 0 8-4 8-9v-14h-4v13c0 4-1 6-5 6-4 0-6-3-6-8v-11h-4l0 17 0 0z m27-11c1-2 3-3 6-3 2 0 4 1 4 3 0 3-2 3-4 4-5 1-8 2-8 7 0 4 4 6 8 6 4 0 7-1 8-4l-3-2c-1 1-2 2-5 2-2 0-4-1-4-2 0-2 3-3 6-4 4 0 7-2 7-6 0-5-5-7-9-7-3 0-6 1-9 4l3 2z m25-3c0-2-1-3-3-3-1 0-3 1-3 3 0 1 2 3 3 3 2 0 3-2 3-3z m19 14c0 10 7 17 18 17 10 0 17-7 17-17s-7-17-17-17c-11 0-18 7-18 17z m31 0c0 7-6 14-13 14-8 0-13-7-13-14s5-14 13-14c7 0 13 6 13 14z m10 0c0 2-1 4-1 5h4c0-1 0-3 0-4h0c1 3 3 5 7 5 6 0 8-4 8-9v-14h-3v13c0 4-2 6-5 6-5 0-7-3-7-8v-11h-4l1 17 0 0z m45-13c-2-3-6-4-10-4-6 0-11 5-11 11 0 7 5 12 11 12 7 0 11-5 11-12v-1h-18c1-4 4-7 7-7 4 0 6 1 7 3l3-2z m-3 9c0 4-3 6-7 6s-6-2-7-6h14z m23 4c0 2-1 4-1 5h4c0-1 0-3 0-4h0c1 3 3 5 7 5 5 0 6-3 7-5 1 3 3 5 7 5 6 0 8-4 8-10v-13h-4v13c0 3-1 6-5 6-3 0-6-2-6-6v-13h-3v13c0 4-1 6-5 6-4 0-6-3-6-8v-11h-4l1 17 0 0z m42 16c2 0 3-1 3-2 0-1-1-3-3-3-1 0-2 2-2 3-1 1 0 2 2 2z m-2-11h4v-22h-4v22z m27-5c-2 2-4 2-6 2-5 0-7-3-7-8 0-5 2-8 7-8 3 0 4 1 6 3l3-3c-2-2-5-3-8-3-7 0-12 4-12 11 0 7 5 12 12 12 3 0 6-1 8-4l-3-2z m7 0c0 2-1 4-1 5h4c0-1 0-3 0-4h0c1 3 4 5 7 5 1 0 1 0 2-1l-1-3c0 0-1 0-2 0-4 0-6-3-6-8v-11h-4l1 17 0 0z m26 6c6 0 12-5 12-12s-6-11-12-11c-7 0-12 4-12 11s5 12 12 12z m0-20c4 0 8 4 8 9 0 4-3 8-8 8-5 0-8-4-8-8 0-5 3-9 8-9z m17 14c0 2 0 4 0 5h3c0-1 0-3 0-4h0c2 3 4 5 8 5 5 0 8-4 8-9v-14h-4v13c0 4-1 6-5 6-4 0-7-3-7-8v-11h-3l0 17 0 0z m39 3h25v-3h-25v3z m0-8h25v-3h-25v3z m-992-68h-4v28h0l-6-5-3 3 9 7h4l0-33 0 0z m13-2l-3 1 14 36 3-1-14-36z m16 7l13 12c3 3 4 4 4 8 0 3-2 5-6 5-3 0-5-2-6-5l-4 0c1 6 5 9 10 9 6 0 10-4 10-9 0-6-3-9-6-12l-10-10v0h16v-3h-21l0 5 0 0z m46 25h-13l0-9c1 0 2 0 4 0 6 0 10-4 10-10 0-7-5-11-11-11-5 0-8 2-10 6l4 1c1-2 3-4 6-4 4 0 7 3 7 7 0 5-3 8-8 8-2 0-5-1-7-2l1 17h17l0-3 0 0z m10-37h-4l4 12h4l-4-12z m20 41c9 0 11-10 11-18s-2-17-11-17c-9 0-11 10-11 17s2 18 11 18z m0-31c7 0 7 9 7 13 0 5 0 14-7 14-6 0-7-9-7-14 0-4 0-13 7-13z m26 31c9 0 11-10 11-18s-2-17-11-17c-9 0-11 10-11 17s2 18 11 18z m0-31c6 0 7 9 7 13 0 5-1 14-7 14-7 0-7-9-7-14 0-4 0-13 7-13z m26 31c9 0 11-10 11-18s-2-17-11-17c-9 0-11 10-11 17s2 18 11 18z m0-31c7 0 7 9 7 13 0 5 0 14-7 14-6 0-7-9-7-14 0-4 0-13 7-13z m40 20c7 0 12-5 12-12 0-7-5-11-12-11-7 0-12 4-12 11 0 7 5 12 12 12z m0-20c5 0 8 3 8 8s-3 8-8 8c-5 0-8-3-8-8s3-8 8-8z m20 16h-5v3h5v5c0 6 1 9 7 9 2 0 3 0 3 0l0-4c-1 1-2 1-3 1-3 0-3-3-3-7v-4h5v-3h-5v-19h-4v19z m25 0c2 2 6 4 9 4 6 0 9-4 9-10v-9c0-2 0-3 0-4h-3c-1 1-1 2-1 3h0c-1-2-3-4-7-4-4 0-8 2-8 7 0 7 8 7 14 7h1v1c0 3-2 5-5 5-3 0-5-1-7-3l-2 3z m11-8c-5 0-8-2-8-5 0-3 2-4 5-4 4 0 6 3 6 7v1h-3z m14 6c0 2-1 3-1 5h4c0-1 0-3 0-4h0c1 2 3 5 7 5 6 0 8-4 8-9v-14h-3v13c0 4-2 6-5 6-5 0-7-3-7-8v-11h-4l1 17 0 0z m41 16c1 0 2-1 2-2 0-2-1-3-2-3s-3 1-3 3c0 1 1 2 3 2z m-2-11h4v-22h-4v22z m11-5c0 2 0 3 0 5h3c0-1 0-3 0-4h0c1 2 4 5 7 5 6 0 9-4 9-9v-14h-4v13c0 4-1 6-5 6-5 0-7-3-7-8v-11h-3l0 17 0 0z m42-1c-2 2-4 3-6 3-5 0-7-4-7-8 0-5 3-9 7-9 3 0 5 1 6 3l3-2c-2-3-5-4-8-4-7 0-12 5-12 12 0 7 5 11 12 11 3 0 6-1 8-3l-3-3z m7 20h3v-17h0c2 2 4 4 8 4 5 0 8-4 8-9v-14h-4v13c0 4-1 6-5 6-4 0-7-3-7-8v-11h-3v36z m41-3c1 0 2-1 2-2 0-2-1-3-2-3s-3 1-3 3c0 1 1 2 3 2z m-2-11h4v-22h-4v22z m11-5c0 2 0 3 0 5h3c0-1 0-3 0-4h0c2 2 4 5 8 5 5 0 8-4 8-9v-14h-4v13c0 4-1 6-5 6-4 0-7-3-7-8v-11h-3l0 17 0 0z m57-13l0 0c-1-3-4-4-8-4-6 0-11 5-11 11 0 7 5 12 11 12 4 0 6-2 8-4h0v17h4v-36h-4l0 4 0 0z m-7 15c-5 0-8-3-8-8s3-8 8-8c5 0 8 3 8 8s-3 8-8 8z m20 14c1 0 3-1 3-2 0-2-2-3-3-3-1 0-3 1-3 3 0 1 2 2 3 2z m-2-11h4v-22h-4v22z m11-3c2 2 5 4 9 4 6 0 9-4 9-10v-9c0-2 0-3 0-4h-3c-1 1-1 2-1 3h0c-1-2-4-4-7-4-4 0-8 2-8 7 0 7 8 7 14 7h1v1c0 3-2 5-5 5-3 0-5-1-7-3l-2 3z m10-8c-4 0-7-2-7-5 0-3 2-4 5-4 4 0 6 3 6 7v1h-4z m14 6c0 2 0 3 0 5h4c0-1 0-3 0-4h0c1 2 3 5 7 5 5 0 6-3 7-5 1 3 3 5 7 5 6 0 8-4 8-10v-13h-4v13c0 3-1 6-5 6-3 0-6-3-6-7v-12h-4v12c0 5-1 7-4 7-5 0-7-3-7-8v-11h-3l0 17 0 0z m60-13c-2-3-6-5-10-5-6 0-11 5-11 12 0 7 5 11 11 11 7 0 11-4 11-11v-1h-18c1-4 3-8 7-8 4 0 6 1 7 4l3-2z m-3 9c0 3-3 6-7 6s-6-3-7-6h14z m22 6h-7v-11c0-3 0-5 3-5 1 0 2 0 4 1l0-3c-2-1-3-1-5-1-5 0-6 3-6 7v12h-4v3h4v6h4v-6h7l0-3 0 0z m24-15c-3-3-6-5-10-5-7 0-11 5-11 12 0 7 4 11 11 11 6 0 10-4 10-11v-1h-17c0-4 3-8 7-8 3 0 5 1 7 4l3-2z m-4 9c0 3-2 6-6 6s-7-3-7-6h13z m10 4c0 2 0 3 0 5h3c0-1 0-3 0-4h0c1 2 4 5 8 5 0 0 1 0 1-1l0-3c-1 0-2 0-2 0-5 0-7-3-7-8v-11h-3l0 17 0 0z" horiz-adv-x="1187" />

<glyph glyph-name="sun" unicode="&#xe83e;" d="M500 74a277 277 0 1 0 277 276 277 277 0 0 0-277-276z m0 534a258 258 0 1 1 258-258 258 258 0 0 1-258 258z m-332-271h-154a14 14 0 1 0 0 27h154a14 14 0 1 0 0-27z m819 0h-155a14 14 0 0 0 0 27h154a14 14 0 0 0 0-27z m-722 234a14 14 0 0 0-9 4l-109 109a14 14 0 0 0 19 20l109-110a14 14 0 0 0-10-23z m579-579a14 14 0 0 0-10 4l-109 110a14 14 0 0 0 19 19l109-109a14 14 0 0 0-9-23z m-344 677a14 14 0 0 0-13 13v155a14 14 0 1 0 27 0v-155a14 14 0 0 0-14-13z m0-819a14 14 0 0 0-13 13v155a14 14 0 0 0 27 0v-154a14 14 0 0 0-14-14z m235 721a14 14 0 0 0-10 23l109 110a14 14 0 0 0 20-19l-110-110a14 14 0 0 0-9-4z m-579-579a14 14 0 0 0-9 23l109 110a14 14 0 0 0 19-19l-109-110a14 14 0 0 0-10-4z m676-1m-95 95" horiz-adv-x="1000" />

<glyph glyph-name="estimate" unicode="&#xe83f;" d="M994 443h-338a37 37 0 0 1-37-37v-519a37 37 0 0 1 37-37h338a37 37 0 0 1 37 37v519a37 37 0 0 1-37 37z m-239-541h-93v93h93z m0 128h-93v93h93z m0 128h-93v93h93z m119-256h-93v93h93z m0 128h-93v93h93z m0 128h-93v93h93z m119-256h-93v93h93z m0 128h-93v93h93z m0 128h-93v93h93z m0 152h-336v85h336z m-99 56h0l-8-4-1 4 10 6h5v-45h-6z m22-39v4l4 4c12 11 17 17 17 23a8 8 0 0 1-9 9 15 15 0 0 1-9-4l-2 5a20 20 0 0 0 12 4 13 13 0 0 0 14-13c0-8-6-15-15-24l-4-3v0h20v-5z m36 7a20 20 0 0 1 10-3c8 0 10 5 10 9 0 6-6 9-11 9h-4v4h4c4 0 10 2 10 8 0 3-3 6-8 6a16 16 0 0 1-9-3l-2 5a21 21 0 0 0 12 3c9 0 12-5 12-10a11 11 0 0 0-8-11v0a12 12 0 0 0 10-11c0-7-5-14-16-14a22 22 0 0 0-12 3z m-244 513a26 26 0 0 0 3-1 26 26 0 0 1-3 1z m-586-970a26 26 0 0 1 26-26h443v51h-418v373l-51 103z m725 849a27 27 0 0 0 2-2 22 22 0 0 1-2 2z m-136 120a25 25 0 0 0 3-2 33 33 0 0 1-3 2z m-14 4a18 18 0 0 0 3 0 18 18 0 0 1-3 0z m152-126a22 22 0 0 0 2-3 22 22 0 0 1-2 3z m-148 126a26 26 0 0 0 3-1 24 24 0 0 1-3 1z m3-1a33 33 0 0 0 3-1 33 33 0 0 1-3 1z m149-132a22 22 0 0 0 1-3 21 21 0 0 1-1 3z m-167 131a25 25 0 0 0 11 2h-549a26 26 0 0 1-26-26v-185l51-102v262h498v25a26 26 0 0 0 15 24z m169-139a26 26 0 0 0-2-11 26 26 0 0 0-23-16h-26v-215h51v240c0 1 0 2 0 2z m-3 11a25 25 0 0 0 1-3 25 25 0 0 1-1 3z m2-7a33 33 0 0 0 1-3 33 33 0 0 1-1 3z m1-3a2 2 0 0 1 0-1 2 2 0 0 0 0 1z m-4 11l1-1z m-129 103v-56l40-35h68a25 25 0 0 0 17-7l-1 1-132 117 0 0a26 26 0 0 0 8-20z m-25 26h0z m3 0l1 0z m4-1l0 0z m7-3l0 0z m138-122l0 0z m4-7s0 0 0 0 0 0 0 0z m1-3c0 0 0-1 0-1s0 1 0 1z m-147 134l1-1z m146-150a26 26 0 0 1 2 11 2 2 0 0 0 0 1 33 33 0 0 1-1 3c0 0 0 1 0 1a22 22 0 0 1-1 3s0 0 0 0a25 25 0 0 1-1 3l0 1a22 22 0 0 1-2 3l0 0a27 27 0 0 1-3 2 25 25 0 0 1-17 7h-108v91a26 26 0 0 1-11 22l0 0a26 26 0 0 1-3 1l-1 1a33 33 0 0 1-3 1l0 0a26 26 0 0 1-3 1l-1 0a18 18 0 0 1-3 0h0a26 26 0 0 1-26-26v-117a26 26 0 0 1 26-25h133a26 26 0 0 1 23 16z m-680-161l-51 102-17 35-105-52 122-244 51-103 88-175 104-76 1 128z m-137 37l-20 40 85 43 20-40z m320-519l-12-6-78 62 38-1 0 35 28-21 26 31z" horiz-adv-x="1031" />

<glyph glyph-name="warehouse" unicode="&#xe840;" d="M475 700l-475-275 100 0 0-400c0-25 22-50 50-50l150 0 0 250c0 28 22 50 50 50l350 0c28 0 49-22 50-50l0-250 150 0c28 0 50 22 50 50l0 400 100 0-475 275c-21 12-42 25-50 25-8 0-28-12-50-25z m-125-475l0-50 350 0 0 50z m0-100l0-50 350 0 0 50z m0-100l0-50 350 0 0 50z" horiz-adv-x="1050" />

<glyph glyph-name="wind" unicode="&#xe841;" d="M123 194q0 13 12 22t29 9h490q39 0 66-27t28-67-28-66-66-28-66 28-28 66q0 16 6 31h-402q-18 0-29 9t-12 23z m0 125q0 13 9 22t22 9h600q-6 15-6 31 0 39 27 66t66 28 67-28 27-66-27-66-67-28h-687q-13 0-22 9t-9 23z m0 124q0 14 9 23t22 9h287q-6 15-6 31 0 39 28 66t66 28 66-28 28-66-28-66-66-28h-375q-13 0-22 9t-9 22z" horiz-adv-x="1000" />

<glyph glyph-name="hvac" unicode="&#xe842;" d="M597 182c3-4 7-8 11-12 17-17 39-17 56 0 6 5 11 11 17 16 19 20 19 42-1 61-7 7-10 13-4 23a43 43 0 0 1 7 16c2 10 7 11 15 11 31-1 46 14 46 45v8c0 41-10 51-51 54a12 12 0 0 0-8 5 257 257 0 0 0-12 28 13 13 0 0 0 2 9c1 3 4 6 7 8 17 18 17 40 1 58-7 7-13 13-20 20-16 14-38 15-54 0a139 139 0 0 1-12-14c-10 4-17 8-24 11-16 6-16 6-17 23 0 24-16 40-40 40-8 1-15 0-23 0-27 0-43-15-43-42 0-4 1-7 0-11a10 10 0 0 0-5-6c-11-5-23-9-36-15-4 5-8 10-13 15a38 38 0 0 1-51 1 223 223 0 0 1-23-24c-13-15-14-38-1-50 15-13 13-23 6-40-5-13-11-17-25-17-23 1-38-16-39-39 0-4 0-9 0-13 0-42 10-52 51-54 3 0 6-2 7-4 5-12 10-24 15-36-3-3-7-6-10-10-18-18-18-41-1-59 6-7 13-13 19-19 16-15 38-15 54 0a145 145 0 0 1 12 14c10-5 17-8 25-11 16-7 16-7 16-24 1-23 17-39 39-40 9 0 19 0 28 0a38 38 0 0 1 37 33c1 6 1 13 2 19a11 11 0 0 0 5 8c11 4 22 8 35 14z m388 45c-1 10-5 15-12 17s-14-1-17-8a57 57 0 0 1-5-17c-1-8 4-13 11-15 8-3 14 0 18 7 3 6 4 12 5 16z m-400 584c11 0 18 6 19 15 0 11-9 17-24 18a16 16 0 0 1-17-16c0-10 8-16 22-17z m367-334c1-5 2-9 3-14 3-8 9-12 17-11 8 1 12 6 14 13 2 10-5 24-13 26a14 14 0 0 1-17-5c-2-3-3-6-4-9z m-921-51c10 0 17 9 18 24a16 16 0 0 1-16 17c-10 0-17-10-17-25a16 16 0 0 1 15-16z m934-143c-1-10 4-18 12-19s16 5 18 15c3 16-1 25-12 26s-17-6-18-22z m3 241c0 13-9 25-19 25-9 0-14-7-15-18s9-23 19-22a16 16 0 0 1 15 16z m-921-266a77 77 0 0 1-3 13c-2 8-8 12-16 10a15 15 0 0 1-13-14 43 43 0 0 1 2-15c3-8 9-12 17-11 8 2 13 7 13 17z m16-61c-3 15-7 24-19 24a15 15 0 0 1-15-16c0-14 9-24 19-24a15 15 0 0 1 15 16z m333-335c10 0 18 6 18 15 1 11-8 17-23 18a16 16 0 0 1-16-15c-1-11 8-17 21-18z m601 547a74 74 0 0 1-1 8c-2 9-9 14-18 13-8-1-13-7-13-16a52 52 0 0 1 1-10c2-9 9-15 18-13 8 1 13 8 13 18z m-418-522c-14 0-23-6-23-17 0-9 8-15 18-15 14 0 22 6 22 16 0 10-7 16-17 16z m-124-35c11 0 19 6 19 15 0 11-8 16-22 17-10 0-18-6-18-15 0-10 8-16 21-17z m5 965a40 40 0 0 1 8 1c8 2 13 8 12 16s-6 14-15 14a50 50 0 0 1-9 0c-10-1-16-8-15-17 0-9 7-15 19-14z m-452-494c0-13 6-20 16-20s15 7 15 19c0 12-7 20-17 20-9-1-15-8-14-19z m31 63c1 11-6 18-15 18s-16-8-16-20c0-12 5-19 15-19 10 0 16 7 16 21z m602-485c-13 0-23-8-23-18a16 16 0 0 1 15-15c13-1 24 7 23 18a15 15 0 0 1-15 15z m-282 906a16 16 0 0 1-16 16c-12 0-23-9-23-19a16 16 0 0 1 16-15c12 0 23 8 23 18z m582-225c0 11-10 22-19 22a16 16 0 0 1-16-15c0-11 11-22 20-22a16 16 0 0 1 15 15z m-676 197a16 16 0 0 1 15-15c11 0 23 9 23 19a16 16 0 0 1-16 15c-11 0-22-10-22-19z m449-872a15 15 0 0 1-15 15c-12 1-23-8-23-18a15 15 0 0 1 15-16c12 0 23 9 23 19z m-52 905c0 10-10 18-23 18a16 16 0 0 1-16-15c0-10 10-18 23-18a16 16 0 0 1 16 15z m-266-5c13 0 22 7 22 17 0 9-8 15-17 15-13 0-21-7-21-17a16 16 0 0 1 16-15z m317-19c-1 16-5 21-16 21a15 15 0 0 1-16-15c0-10 11-19 23-19 11 0 10 7 9 13z m-397-891c2-11 14-20 24-17 5 2 11 7 13 12 1 4-3 10-6 15-1 2-5 2-7 1-8-3-16-7-24-11z m636 249c10 6 13 14 13 22a18 18 0 0 1-8 13c-4 2-11 1-16 0-1-1-3-6-2-8 4-9 8-17 13-27z m-707 595c6 8 5 17-2 23-8 5-18 3-24-6z m491-798c-8-12-6-20 5-24z m-736 132c5 7 11 9 19 9 7 1 14 2 25 2-8 5-14 9-19 12-9 6-12 14-7 22s13 10 23 5c3-2 6-4 12-8-2 7-4 11-6 16-3 9 0 17 9 21s17-1 20-10c7-15 13-30 19-45a37 37 0 0 1 5-9 17 17 0 0 1 4-3l44-26c0 17 1 33 0 48 0 3-2 5-4 8-12 15-24 29-36 44-8 10-8 19 0 25 8 6 16 4 24-5a111 111 0 0 1 16-18c0 10 0 19 0 28 1 11 7 18 16 18s15-7 16-18c0-9 0-18 0-30 6 8 12 15 17 21 7 8 16 10 23 4s8-15 1-24c-12-15-24-30-36-45a28 28 0 0 1-5-15c-1-15 0-31 0-49 8 6 16 11 24 14 22 10 36 26 42 50 2 9 7 18 11 27s12 13 20 10 12-12 8-22c-2-6-4-12-8-20 9 5 16 9 22 13 10 5 18 3 23-4s3-17-7-23c-6-4-11-7-19-12 8-1 12-1 17-2 14-1 21-7 20-17s-8-15-22-14c-18 2-36 4-54 4a30 30 0 0 1-15-3c-14-7-27-16-42-24 17-10 32-19 47-28 2-1 6-1 9 0 19 1 38 3 57 4 11 1 19-4 19-14 1-9-6-16-18-17-5 0-10-1-18-2 9-5 15-9 22-13 8-6 11-14 7-22-5-8-14-10-23-4-7 4-14 8-23 11 1-5 3-10 5-14 6-14 4-23-6-27q-14-5-22 15c-7 16-13 32-20 48a29 29 0 0 1-10 12c-15 9-30 17-46 27 0-21 0-40 0-59 0-2 2-5 4-7 12-15 24-30 36-45 8-9 8-19 0-25-7-5-16-3-24 6-5 6-9 12-16 20 0-10-1-17 0-23 1-10-2-18-10-23h-12c-8 5-11 13-10 22 1 7 0 14 0 24-6-9-11-15-16-21-8-9-17-10-25-4s-7 15 1 24c12 15 24 30 36 45 2 2 4 5 4 8 1 16 0 32 0 50-12-7-23-13-33-19a34 34 0 0 1-11-14c-8-16-14-33-21-50-4-9-12-12-20-9-8 3-12 11-9 21 3 6 5 12 8 18-2 1-2 1-2 1-7-4-14-8-21-12-10-6-19-4-24 4-4 8-1 17 8 22 6 4 12 8 21 13-9 1-14 1-20 2-11 1-18 8-17 17 1 10 8 15 19 14 13 0 25-2 38-3 9-1 19-4 27-1 16 7 32 18 48 28-15 9-29 17-44 25a26 26 0 0 1-13 3q-30-2-60-5c-9-1-16 1-22 8z m1000 597a11 11 0 0 1-1-2c-12-43-48-63-90-51-14 4-26 11-40 16l-10-9c11-12 22-24 32-38a89 89 0 0 0 15-28c3-12-1-24-10-34-21-23-48-33-79-25-35 9-57 46-48 82 4 16 11 31 17 48l-8 9c-6-4-11-9-16-13-10-9-20-18-31-26-15-12-33-12-49-1-30 21-40 69-21 100 16 27 46 39 79 30a133 133 0 0 0 30-12c9-5 15-6 21 5-4 5-9 11-13 16-8 10-17 19-24 29-14 18-13 39 2 56a79 79 0 0 0 38 23c3 1 6 2 9 3h25c3-1 5-2 8-3 28-10 43-29 47-58 2-17-2-34-10-50-3-7-6-14-9-19l9-12c6 5 10 9 15 13 11 9 21 18 32 27 13 11 29 12 44 3a77 77 0 0 0 23-23c6-10 9-21 13-32z m-177-65c-9 4-14-2-17-10-2-6-5-13-7-19-5-23 8-44 29-48 16-2 31 3 42 14 7 6 8 12 2 20-11 11-22 23-31 36-5 6-10 10-18 7z m109 37c8 5 18 7 25 13 18 16 14 52-6 65-5 4-10 4-15-1-14-12-28-24-42-36-5-4-5-24 0-26 12-5 24-10 38-15z m-116 175a52 52 0 0 1-35-14c-7-7-8-12-1-20 11-14 23-28 35-41a12 12 0 0 1 7-3c18-2 20-1 26 17a84 84 0 0 1 4 21c2 23-14 40-36 40z m-57-143l3 1c-3 4-3 11-7 13a104 104 0 0 1-28 11 36 36 0 0 1-40-19c-9-16-3-43 11-55 6-4 11-5 17 0 12 11 24 22 37 32 5 5 10 9 7 17z m66-28a27 27 0 1 1-27 26 27 27 0 0 1 27-26z m-698 202c28-19 43-48 50-80 5-19 6-40 9-60-1 0 0 0 0 0 3 9 7 16 18 17 10 1 16-5 21-14 15-26 27-53 30-84 5-52-25-105-72-127s-106-12-141 23c-36 35-41 77-29 123 9 34 28 63 47 92 14 22 26 45 38 68a42 42 0 0 1 5 19 26 26 0 0 0 12 23z m-65-302c-2 26 5 48 17 68 5 8 10 16 15 24 8 12 15 24 16 39 1 13 15 19 26 12a42 42 0 0 0 8-8 94 94 0 0 0 21-50c32-17 33-47 37-76 27 32 30 81 4 123-23-19-47-9-52 20-1 7-1 14-2 20 0 10 0 21-2 31a125 125 0 0 1-19 50c-9-16-16-32-24-47s-20-29-30-44a419 419 0 0 1-21-37c-12-23-20-48-17-74a81 81 0 0 1 23-51z m70 91l-3 0c-10-17-20-34-30-52a68 68 0 0 1-6-24c-3-23 13-40 36-41 30-1 50 33 38 60-9 3-16 4-22 7-9 6-10 15-11 24 0 9-1 17-2 26z m739-789c-7 2-14 3-22 5-61 16-92 69-79 134 7 31 20 59 35 86 12 21 25 42 36 63 8 17 14 34 21 51 2 4 3 9 5 13a16 16 0 0 0 27 0 35 35 0 0 0 6-11c6-25 17-47 30-68 5-8 10-15 14-23 24-38 48-76 56-121v-33c-1-3-2-7-2-10-9-41-34-67-74-80-9-3-18-4-27-6z m10 296c-17-31-36-62-52-94-11-21-21-43-27-66-13-52 9-90 58-102 59-14 126 22 105 106-5 20-15 38-25 56-19 34-40 67-59 100z m119 190c-5-3-10-8-15-9-10-2-16 7-16 19 0 14 6 23 16 21 5-1 10-6 15-9z m-469 514c11-8 13-16 8-24-4-7-18-11-27-5a22 22 0 0 0-9 12c-2 8 4 13 11 17z m-25-1000c-10 8-13 15-9 23 4 7 15 12 25 7a22 22 0 0 0 11-12c3-8-3-14-10-18z m91 332c-13-6-24-10-35-15a11 11 0 0 1-5-7c-1-7 0-13-2-20a38 38 0 0 0-37-32c-9 0-19 0-28 0-22 1-38 17-39 39 0 18 0 18-16 25-8 3-15 6-25 10a145 145 0 0 0-12-14c-16-14-38-14-54 0-6 7-13 13-19 20-17 18-17 41 1 59 3 3 7 6 10 9-5 13-9 25-15 37 0 2-4 4-7 4-41 2-51 12-51 53 0 5 0 10 0 14 1 23 16 40 39 39 14-1 20 4 25 17 7 16 9 27-6 40-13 12-11 35 1 50a223 223 0 0 0 23 23 38 38 0 0 0 51 0c5-5 9-11 13-15 14 6 25 10 36 15a10 10 0 0 1 5 6c1 3 0 7 0 11 0 26 16 42 43 42 8 0 16 0 23 0 24 0 40-16 40-40 1-17 1-17 17-23 7-3 14-7 24-12a139 139 0 0 0 12 15c16 14 38 14 54 0 7-7 13-14 20-21 16-18 16-40-1-57-2-3-6-5-7-8a13 13 0 0 1-2-9 257 257 0 0 1 12-28 12 12 0 0 1 8-6c41-2 51-12 51-53v-8c0-31-15-46-45-45-9 0-14-2-16-11a43 43 0 0 0-7-16c-6-10-3-16 4-23 20-19 20-41 1-61-5-6-11-11-17-17-17-16-39-16-56 0-4 5-8 9-11 13z m-71-19v9c0 15 3 18 17 23a458 458 0 0 1 44 19c11 5 16 5 24-3 6-6 12-11 17-17 5-6 11-6 16-1 5 6 11 11 16 16 5 5 5 10 0 15-7 6-13 13-19 19-6 7-7 13-3 22 8 16 15 33 21 49 3 9 8 14 17 14 9 0 17 0 26 0 8 0 11 4 11 11s0 15 0 23c0 7-3 10-11 10-8 0-17 0-26 0s-14 5-17 13c-6 17-13 34-21 51-4 8-3 15 4 22 6 6 12 12 18 17 5 5 5 10 0 16-5 6-12 11-18 17-5 4-9 3-14-1-6-6-12-12-18-18-6-7-14-8-22-4q-25 12-50 21c-8 3-13 8-13 17s0 18 0 27c0 7-3 11-10 11-7 0-15 0-23 0-7 0-10-4-10-11 0-9 0-18 0-27s-5-13-13-17c-17-6-34-13-50-20-8-4-15-4-22 3-6 6-12 12-18 18-5 6-10 5-15 1-6-6-11-12-17-17-5-6-5-11 1-16s10-10 16-15c9-10 9-15 3-27a309 309 0 0 1-17-41c-6-18-8-20-26-20-32 0-33-2-30-34 1-7 4-10 11-10 9 0 17 0 26 0s14-5 17-13q10-26 21-50c4-9 3-16-3-23-6-5-12-12-18-17-6-5-5-10-1-15 6-5 11-11 17-16s10-6 15 0c6 6 12 12 18 18 7 7 14 7 22 3 16-8 32-15 49-21 9-3 14-8 14-18 0-8 0-17 0-25s4-12 12-12c2 0 5 0 7 0 29 0 24 0 25 24z m459 64c-1-4-2-10-5-16-4-7-10-10-18-8-7 3-12 8-11 16a57 57 0 0 0 5 17c3 7 10 10 17 8s11-7 12-17z m-400 584c-14 1-22 7-22 17a16 16 0 0 0 17 16c15-1 24-7 24-18 0-9-8-15-19-15z m367-334c1 3 2 6 3 9a14 14 0 0 0 18 5c8-2 15-16 13-26-2-7-6-12-14-13-8-1-14 3-17 11-1 4-2 9-3 14z m-921-51a16 16 0 0 0-15 16c0 15 7 25 17 25a16 16 0 0 0 16-17c-1-15-8-24-18-24z m934-143c1 16 7 24 18 22s15-10 12-26c-2-10-9-16-18-14s-13 8-12 18z m3 242a16 16 0 0 0-15-16c-10-1-19 11-19 22s6 18 15 18c10 0 19-12 19-24z m-921-267c0-10-5-15-13-17-8-1-14 3-17 11a43 43 0 0 0-2 15 15 15 0 0 0 13 14c8 2 14-2 16-10a77 77 0 0 0 3-13z m16-61a15 15 0 0 0-15-16c-10 0-19 10-19 24a15 15 0 0 0 15 16c12 0 16-9 19-24z m333-335c-13 1-22 8-21 18a16 16 0 0 0 16 15c15-1 24-7 23-18 0-9-8-15-18-15z m601 547c0-10-5-17-13-18-9-2-16 4-18 13a52 52 0 0 0-1 10c0 9 5 15 13 16 9 1 16-4 18-13a74 74 0 0 0 1-8z m-418-522c10 0 17-6 17-16 0-10-8-16-22-16-10 0-18 6-18 15 0 11 9 17 23 17z m-124-35c-13 1-21 7-21 17 0 9 8 15 18 15 14-1 22-6 22-17-1-9-8-15-19-15z m5 965c-12-1-19 5-20 14 0 9 6 16 16 17a50 50 0 0 0 9 0c9 0 14-5 15-14s-4-14-12-16a40 40 0 0 0-8-1z m-452-494c-1 11 5 18 14 19 10 0 17-8 17-20 0-12-5-19-15-19s-16 7-16 20z m31 63c0-14-6-21-16-21-9 0-15 7-15 19 0 12 6 20 16 20s16-7 15-18z m602-485a15 15 0 0 0 15-15c1-10-10-19-23-18a16 16 0 0 0-15 15c0 10 10 18 23 18z m-282 906c0-10-11-18-23-18a16 16 0 0 0-16 15c0 10 11 19 23 19a16 16 0 0 0 16-16z m582-225a16 16 0 0 0-15-15c-9 0-19 11-20 22a16 16 0 0 0 16 15c9 0 19-11 19-22z m-676 197c0 9 11 19 22 19a16 16 0 0 0 15-15c0-10-11-19-22-19a16 16 0 0 0-15 15z m449-872c0-10-11-19-23-18a15 15 0 0 0-15 15c0 10 11 19 23 18a15 15 0 0 0 15-15z m-52 905a16 16 0 0 0-16-15c-13 0-23 8-23 18a16 16 0 0 0 16 15c13 0 23-8 23-18z m-266-5a16 16 0 0 0-16 15c0 10 8 17 21 17 9 0 17-6 17-15 0-10-9-17-22-17z m317-19c1-6 2-13-9-13-12 0-23 9-23 19a15 15 0 0 0 16 15c11 0 16-5 16-21z m-397-891c8 4 16 8 24 11 2 1 6 1 7-1 3-5 7-11 6-15-2-5-8-10-13-12-10-3-22 6-24 17z m636 249c-5 10-9 18-13 27-1 2 1 7 2 8 5 1 12 2 16 0a18 18 0 0 0 8-13c0-8-4-16-13-22z m-707 595l-26 17c6 9 16 11 24 6 7-6 8-15 2-23z m491-798l5-24c-11 4-13 12-5 24z m196 19c-3-11-5-21-8-31a15 15 0 0 0-29 9c8 23 2 43-8 63a31 31 0 0 0-3 8c-1 8 2 14 10 17 8 4 14 1 19-7a140 140 0 0 0 19-59z m-336 387a94 94 0 1 0-91 95c51-1 92-44 91-95z m-155 1a63 63 0 1 1 61 62 62 62 0 0 1-61-62z" horiz-adv-x="1000" />

<glyph glyph-name="sun-inv" unicode="&#xe843;" d="M94 350q0 13 9 22t22 9h62q14 0 23-9t9-22-9-23-23-8h-62q-14 0-22 8t-9 23z m119-287q-22 21 0 45l45 43q21 21 43 0t0-43l-43-45q-24-22-45 0z m0 529q-22 23 0 45t45 0l43-45q21-22 0-43t-43 0z m68-242q0 90 65 154t154 64 154-64 64-154-64-154-154-65-154 65-65 154z m188-375v62q0 14 8 23t23 9 22-9 9-23v-62q0-14-9-23t-22-8-23 8-8 23z m0 687v63q0 13 8 22t23 9 22-9 9-22v-63q0-14-9-22t-22-9-23 9-8 22z m229-511q22 21 44 0l45-43q21-24 0-45t-45 0l-43 45q-24 21-1 43z m0 398q-23 21 1 43l43 45q23 21 45 0t0-45l-45-43q-22-22-44 0z m83-199q0 13 9 22t22 9h63q13 0 22-9t9-22-9-23-22-8h-63q-14 0-22 8t-9 23z" horiz-adv-x="1000" />

<glyph glyph-name="sun-1" unicode="&#xe844;" d="M94 350q0 13 9 22t22 9h62q14 0 23-9t9-22-9-23-23-8h-62q-14 0-22 8t-9 23z m119-287q-11 11-11 22t11 23l45 43q10 12 22 12l21-11q10-12 10-23t-10-21l-43-45q-12-11-23-11t-22 11z m0 529q-11 12-11 23t11 22 22 10 23-10l43-45q10-11 10-22t-10-21-22-11l-21 11z m68-242q0 90 65 154t154 64 154-64 64-154-64-154-154-65-154 65-65 154z m63 0q0-65 45-111t111-45 109 44q47 47 47 112t-46 110-110 46-111-46-45-110z m125-375v62q0 14 8 23t23 9 22-9 9-23v-62q0-14-9-23t-22-8-23 8-8 23z m0 687v63q0 13 8 22t23 9 22-9 9-22v-63q0-14-9-22t-22-9-23 9-8 22z m230-554q-11 10-11 21t11 22 21 10l22-10 45-43q10-12 10-23t-10-22-22-11-23 11z m0 441q-11 11-11 21t11 22l43 45q12 10 23 10t22-10 10-22-10-23l-45-43q-11-11-22-11z m82-199q0 13 9 22t22 9h63q13 0 22-9t9-22-9-23-22-8h-63q-14 0-22 8t-9 23z" horiz-adv-x="1000" />

<glyph glyph-name="windy-rain-inv" unicode="&#xe845;" d="M0 318q0 12 9 21t22 9h250q14 0 23-9t8-21q0-14-9-23t-22-10h-250q-13 0-22 10t-9 23z m0 124q0 13 9 22t22 9h125q14 0 23-9t8-22q0-13-9-22t-22-10h-125q-13 0-22 10t-9 22z m63 125q0 13 8 22t23 9h125q13 0 22-9t9-22q0-13-9-22t-22-10h-125q-13 0-22 10t-9 22z m208-49q0 77 54 133t132 60q74 76 178 76t179-76q78-4 132-60t53-133q0-82-56-139t-139-57q-17 0-33 2-62-39-136-39t-135 39q-16-2-35-2-80 0-137 57t-57 139z m166-418q0 35 63 125l15-24q18-26 32-54 15-32 15-47 0-25-18-44t-44-19-44 19-19 44z m250-125q0 35 63 125l15-24q18-26 31-54 16-32 16-47 0-25-18-44t-44-19-44 19-19 44z" horiz-adv-x="1000" />

<glyph glyph-name="snow-inv" unicode="&#xe846;" d="M0 506q0 90 64 154t155 65q17 0 31-2 43 61 109 93 68 33 141 33t140-33q66-32 110-93 13 2 31 2 90 0 154-65t64-154-64-154-154-65q-42 0-78 14-88-76-203-76t-203 76q-37-14-78-14-90 0-155 65t-64 154z m348-544q3 15 15 21l35 21q-3 19 0 37l-35 20q-12 8-15 21t2 27q7 12 21 16t27-4l35-21q14 14 32 19v41q0 14 10 25t25 11 24-11 11-25v-41q17-5 31-19l35 21q14 8 28 4t20-16q7-13 3-27t-16-21l-35-20q4-18 0-37l35-21q12-6 16-21t-3-26q-7-12-21-16t-27 4l-35 20q-14-12-31-18v-41q0-15-11-25t-24-10-25 10-10 25v41q-17 6-32 18l-35-20q-13-7-27-4t-21 16q-6 12-2 26z m117 61q0-15 10-25t25-9 23 9q12 10 12 25t-11 24-24 10-25-10-10-24z" horiz-adv-x="1000" />

<glyph glyph-name="snow-heavy-inv" unicode="&#xe847;" d="M0 506q0 90 64 154t155 65q17 0 31-2 43 61 109 93 68 33 141 33t140-33q66-32 110-93 13 2 31 2 90 0 154-65t64-154-64-154-154-65q-42 0-78 14-88-76-203-76t-203 76q-37-14-78-14-90 0-155 65t-64 154z m60-392q-5 19 14 25l24 6q0 12 6 21l-18 18q-14 14 0 28 14 15 29 1l18-17q9 3 21 5l6 24q6 19 25 13t14-25l-6-23q5-3 8-6 4-5 8-10l23 8q20 3 26-16 6-19-16-25l-23-6q0-12-6-21l17-18q16-14 1-28-14-15-30-1l-16 17q-11-3-21-6l-8-23q-4-20-24-15-21 5-15 27l6 23q-7 4-16 16l-23-8q-20-3-24 16z m84 11q14-13 29 0 14 14-1 28-14 15-28 1-15-15 0-29z m204-163q3 15 15 21l35 21q-3 19 0 37l-35 20q-12 8-15 21t2 27q7 12 21 16t27-4l35-21q14 14 32 19v41q0 14 10 25t25 11 24-11 11-25v-41q17-5 31-19l35 21q14 8 28 4t20-16q7-13 3-27t-16-21l-35-20q4-18 0-37l35-21q12-6 16-21t-3-26q-7-12-21-16t-27 4l-35 20q-14-12-31-18v-41q0-15-11-25t-24-10-25 10-10 25v41q-17 6-32 18l-35-20q-13-7-27-4t-21 16q-6 12-2 26z m117 61q0-15 10-25t25-9 23 9q12 10 12 25t-11 24-24 10-25-10-10-24z m277 81q6 19 25 13l24-5q3 5 7 9 3 3 8 6l-6 24q-5 19 14 25t25-14l6-23q12-2 22-6l17 18q15 13 30-1 13-15 0-29l-18-17q6-10 6-22l23-6q20-5 15-25-5-19-24-16l-24 8q-8-12-16-15l6-24q6-21-14-26-21-6-25 14l-7 24q-13 2-22 6l-16-18q-15-14-30 1-14 14 1 29l18 17q-6 9-6 22l-24 5q-21 6-15 26z m85-41q14-14 29 0 14 13-1 27-14 16-28 1-15-15 0-28z" horiz-adv-x="1000" />

<glyph glyph-name="hail-inv" unicode="&#xe848;" d="M0 506q0 90 64 154t155 65q17 0 31-2 43 61 109 93 68 33 141 33t140-33q66-32 110-93 13 2 31 2 90 0 154-65t64-154-64-154-154-65q-42 0-78 14-88-76-203-76t-203 76q-37-14-78-14-90 0-155 65t-64 154z m125-344q0 26 19 44t43 19 43-20q20-17 20-43t-19-44-44-18-43 18-19 44z m125-250q0 26 18 44t44 19 43-20q20-17 20-43t-19-44-44-18-44 18-18 44z m187 188q0 25 19 44t44 18 43-19q19-18 19-43t-18-44-44-19-44 19-19 44z m188-188q0 26 18 44t44 19 43-20q20-17 20-43t-19-44-44-18-44 18-18 44z m125 250q0 26 18 44t44 19 43-20q20-17 20-43t-19-44-44-18-44 18-18 44z" horiz-adv-x="1000" />

<glyph glyph-name="clouds-inv" unicode="&#xe849;" d="M2 234q0 90 64 155t155 64q14 0 31-4 0 1 1 3t1 3q-2 16-2 29 0 70 51 122 50 52 123 52 8 0 13-2 72 90 188 90t187-90q5 2 14 2 72 0 123-52 50-52 50-122 0-68-46-117 46-60 46-132 0-92-64-156-64-63-154-63-42 0-78 14-88-77-203-77t-203 77q-37-14-78-14-91 0-155 63-64 64-64 155z" horiz-adv-x="1000" />

<glyph glyph-name="clouds-flash-inv" unicode="&#xe84a;" d="M0 336q0 90 64 154t155 65q17 0 31-2 1 4 4 4-4 18-4 29 0 72 51 123t123 51h13q73 89 188 89t187-89h14q72 0 123-51t50-123q0-66-46-117 46-59 46-133 0-90-64-154t-154-65q-42 0-78 14-82-72-193-74l-10-20 62-62-187-125 62 125-62 62 45 30q-72 19-123 64-37-14-78-14-90 0-155 65t-64 154z" horiz-adv-x="1000" />

<glyph glyph-name="temperature" unicode="&#xe84b;" d="M375 37q0 73 62 108v574q0 28 19 48 18 20 44 20t44-20q18-20 18-48v-574q63-35 63-108 0-50-37-87t-89-38q-52 0-88 38-36 37-36 87z" horiz-adv-x="1000" />

<glyph glyph-name="compass" unicode="&#xe84c;" d="M0 350q0 207 146 353t354 146 353-146 146-353-146-354-353-146-354 146-146 354z m125 0q0-154 110-265t265-110 263 109q112 112 112 266t-111 264-264 111-265-111-110-264z m187-188l125 250 250 125-125-250z" horiz-adv-x="1000" />

<glyph glyph-name="na" unicode="&#xe84d;" d="M102 180v343h62l80-117 64-101h2v218h69v-343h-63l-86 129-58 88h-2v-217h-68z m300-22l127 383h51l-127-383h-51z m186 22l121 343h70l119-343h-74l-22 70h-119l-23-70h-72z m113 127h84l-14 45-27 90h-2l-28-88z" horiz-adv-x="1000" />

<glyph glyph-name="celcius" unicode="&#xe84e;" d="M283 424q-13 28 0 58t41 40q29 12 59-1t43-40q5-12 5-28t-5-29q-12-27-42-39-31-12-60 0t-41 39z m37 29q0-13 10-23t24-10 25 10 9 23-9 24-25 9-24-9-10-24z m166-170v129q0 51 40 81t91 30q69 0 105-33l-33-52q-27 23-70 23-26 0-45-15t-20-47v-100q0-32 20-47t45-15q38 0 72 23l31-53q-43-35-103-35-53 0-93 30t-40 81z" horiz-adv-x="1000" />

<glyph glyph-name="fahrenheit" unicode="&#xe84f;" d="M276 461q2 20 15 36t32 23q30 11 60 0t41-39q12-28 0-57t-41-41q-14-6-31-6t-30 6q-28 12-41 40-7 19-5 38z m42-10q0-13 10-23t24-10 25 10 10 23-10 24-25 9-24-9-10-24z m168-277v346h238v-63h-170v-80h145v-62h-145v-141h-68z" horiz-adv-x="1000" />

<glyph glyph-name="clouds-flash-alt" unicode="&#xe850;" d="M0 336q0 90 64 154t155 65q17 0 31-2 1 4 4 4-4 18-4 29 0 72 51 123t123 51h13q73 89 188 89t187-89h14q72 0 123-51t50-123q0-66-46-117 46-59 46-133 0-90-64-154t-154-65q-40 0-78 16-40-36-92-57l-35 36 12 23q63 26 103 74 41-29 90-29 64 0 110 46t46 110q0 52-33 96-23 29-56 44t-67 16l-26-2q-18-3-33-9-32 62-91 99-59 37-131 37-104 0-178-76-24-24-41-55-1-3-4-5-27 11-58 11-65 0-111-46t-45-110 45-110 111-46q48 0 89 29 21-25 51-45l-56-37-6 4q-37-14-78-14-90 0-155 65t-64 154z m318 285q82 59 182 59 73 0 140-34 66-32 110-93 13 2 31 2 70 0 129-41 27 31 27 72 0 47-32 79t-79 32q-23 0-43-8-22 45-65 72t-93 26-94-26-64-72q-21 8-43 8-37 0-66-21-28-21-40-55z m57-771l62 187-62 63 187 125-62-125 62-63z" horiz-adv-x="1000" />

<glyph glyph-name="moon-inv" unicode="&#xe851;" d="M287 357q0 90 64 155 36 33 82 51-21-60-7-121 14-63 58-108t108-58q61-14 121 7-18-46-51-82-65-64-155-64t-156 64-64 156z" horiz-adv-x="1000" />

<glyph glyph-name="cloud-sun-inv" unicode="&#xe852;" d="M0 131q0 88 62 151t149 68q-24 45-24 93 0 90 65 155t154 64q89 0 153-62 63-62 66-153 75-32 125-99 13 2 31 2 90 0 154-65t64-154-64-154-154-65q-42 0-78 14-88-76-203-76t-203 76q-37-14-78-14-90 0-155 65t-64 154z m0 312q0 14 9 23t22 9h63q13 0 22-9t9-23-9-22-22-9h-63q-13 0-22 9t-9 22z m119 243q-21 23 0 44t45 0l43-44q21-22 0-43t-43 0z m131-243q0-37 19-72 92 104 231 104 27 0 60-6-9 56-52 94t-102 37q-64 0-110-46t-46-111z m125 313v62q0 14 9 23t22 8 23-8 8-23v-62q0-14-8-23t-23-8-22 8-9 23z m230-113q-21 21 0 43l43 44q24 22 45 0t0-44l-45-43q-21-22-43 0z m82-200q0 14 9 23t22 9h63q14 0 22-9t9-23-9-22-22-9h-63q-13 0-22 9t-9 22z" horiz-adv-x="1000" />

<glyph glyph-name="cloud-moon-inv" unicode="&#xe853;" d="M0 131q0 90 64 154t155 65q17 0 31-2 78 107 211 125-18 61-1 127 16 66 63 113 39 39 94 58 19 8 33-6 14-15 8-33-20-52-8-104 12-52 50-91 38-39 91-51 53-11 105 8 18 6 32-8 15-14 7-33-19-54-59-93-7-8-27-22 67-21 109-78 41-57 41-129 0-90-64-154t-154-65q-42 0-78 14-88-76-203-76t-203 76q-37-14-78-14-90 0-155 65t-64 154z m517 445q-11-55 8-103 134-10 219-117 65 15 103 64-111-6-191 73-80 80-72 191-8-6-16-14-39-39-51-94z" horiz-adv-x="1000" />

<glyph glyph-name="cloud-flash-inv" unicode="&#xe854;" d="M0 506q0 90 64 154t155 65q17 0 31-2 43 61 109 93 68 33 141 33t140-33q66-32 110-93 13 2 31 2 90 0 154-65t64-154-64-154-154-65q-42 0-78 14-76-66-182-74l-21-65 62-62-187-188 62 188-62 62 68 69q-84 15-146 70-37-14-78-14-90 0-155 65t-64 154z" horiz-adv-x="1000" />

<glyph glyph-name="drizzle-inv" unicode="&#xe855;" d="M0 443q0 90 64 155t155 64q17 0 31-2 43 61 109 94 68 33 141 33t140-33q66-33 110-94 13 2 31 2 90 0 154-64t64-155-64-154-154-64q-42 0-78 13-88-76-203-76t-203 76q-37-13-78-13-90 0-155 64t-64 154z m437-468q0 35 63 125l15-24q18-26 32-54 15-32 15-47 0-25-18-44t-44-19-44 19-19 44z" horiz-adv-x="1000" />

<glyph glyph-name="rain-inv" unicode="&#xe856;" d="M0 506q0 90 64 154t155 65q17 0 31-2 43 61 109 93 68 33 141 33t140-33q66-32 110-93 13 2 31 2 90 0 154-65t64-154-64-154-154-65q-42 0-78 14-88-76-203-76t-203 76q-37-14-78-14-90 0-155 65t-64 154z m187-406q0 35 63 125l16-24q17-26 31-54 15-32 15-47 0-25-18-44t-44-19-44 19-19 44z m252-188q0 35 63 125l15-23q18-27 32-55 15-32 15-47 0-25-18-44t-44-18-44 18-19 44z m248 63q0 35 63 125l15-24q18-26 31-54 16-32 16-47 0-25-18-44t-44-19-44 19-19 44z" horiz-adv-x="1000" />

<glyph glyph-name="windy" unicode="&#xe857;" d="M0 131q0 14 9 23t22 8h250q14 0 23-8t8-23-8-22-23-9h-250q-13 0-22 9t-9 22z m0 125q0 14 9 23t22 8h125q14 0 23-8t8-23-8-22-23-9h-125q-13 0-22 9t-9 22z m63 125q0 14 8 22t23 9h125q13 0 22-9t9-22-9-22-22-9h-125q-14 0-23 9t-8 22z m208-51q0 78 54 135 54 57 132 60 74 77 178 77t179-77q78-3 132-60 53-57 53-135 0-80-56-136t-139-57q-17 0-33 2-62-41-136-41t-135 41q-16-2-35-2-80 0-137 57t-57 136z m63 0q0-54 38-92t93-39q26 0 46 8 56-47 124-47 70 0 122 47 23-8 47-8 55 0 94 39t39 92-39 94-94 39q-9 0-17-2-56 78-152 78t-151-78q-8 2-19 2-55 0-93-39t-38-94z" horiz-adv-x="1000" />

<glyph glyph-name="rain" unicode="&#xe858;" d="M0 506q0 90 64 154t155 65q17 0 31-2 43 61 109 93 68 33 141 33t140-33q66-32 110-93 13 2 31 2 90 0 154-65t64-154-64-154-154-65q-42 0-78 14-88-76-203-76t-203 76q-37-14-78-14-90 0-155 65t-64 154z m63 0q0-64 45-110t111-46q48 0 89 29 77-92 192-92t191 92q41-29 90-29 64 0 110 46t46 110-46 110-110 46q-31 0-59-12-32 62-91 100-59 37-131 37t-131-37q-59-38-92-100-27 12-58 12-65 0-111-46t-45-110z m124-406q0 35 63 125l16-24q17-26 31-54 15-32 15-47 0-25-18-44t-44-19-44 19-19 44z m252-188q0 35 63 125l15-23q18-27 32-55 15-32 15-47 0-25-18-44t-44-18-44 18-19 44z m248 63q0 35 63 125l15-24q18-26 31-54 16-32 16-47 0-25-18-44t-44-19-44 19-19 44z" horiz-adv-x="1000" />

<glyph glyph-name="drizzle" unicode="&#xe859;" d="M0 443q0 90 64 155t155 64q17 0 31-2 43 61 109 94 68 33 141 33t140-33q66-33 110-94 13 2 31 2 90 0 154-64t64-155-64-154-154-64q-42 0-78 13-88-76-203-76t-203 76q-37-13-78-13-90 0-155 64t-64 154z m63 0q0-64 45-110t111-46q48 0 89 30 77-92 192-92t191 92q41-30 90-30 64 0 110 46t46 110-46 111-110 46q-31 0-59-12-32 62-91 99-59 38-131 38t-131-38q-59-37-92-99-27 12-58 12-65 0-111-46t-45-111z m374-468q0 35 63 125l15-24q18-26 32-54 15-32 15-47 0-25-18-44t-44-19-44 19-19 44z" horiz-adv-x="1000" />

<glyph glyph-name="cloud-inv" unicode="&#xe85a;" d="M0 319q0 89 64 154t155 64q17 0 31-2 43 61 109 94 68 33 141 33t140-33q66-33 110-94 13 2 31 2 90 0 154-64t64-154-64-155-154-64q-42 0-78 14-88-77-203-77t-203 77q-37-14-78-14-90 0-155 64t-64 155z" horiz-adv-x="1000" />

<glyph glyph-name="cloud-flash-alt" unicode="&#xe85b;" d="M0 506q0 90 64 154t155 65q17 0 31-2 43 61 109 93 68 33 141 33t140-33q66-32 110-93 13 2 31 2 90 0 154-65t64-154-64-154-154-65q-42 0-78 14-47-41-111-61l25 79q45 26 74 60 41-29 90-29 64 0 110 46t46 110-46 110-110 46q-31 0-59-12-32 62-91 100-59 37-131 37t-131-37q-59-38-92-100-27 12-58 12-65 0-111-46t-45-110 45-110 111-46q48 0 89 29 45-55 118-78l-49-49q-48 20-80 49-37-14-78-14-90 0-155 65t-64 154z m375-594l62 188-62 62 187 188-62-188 62-62z" horiz-adv-x="1000" />

<glyph glyph-name="cloud-flash" unicode="&#xe85c;" d="M0 506q0 90 64 154t155 65q17 0 31-2 43 61 109 93 68 33 141 33t140-33q66-32 110-93 13 2 31 2 90 0 154-65t64-154-64-154-154-65q-42 0-78 14-76-66-182-74l-21-65 62-62-187-188 62 188-62 62 68 69q-84 15-146 70-37-14-78-14-90 0-155 65t-64 154z m63 0q0-64 45-110t111-46q48 0 89 29 77-92 192-92l43 6q89 15 148 86 41-29 90-29 64 0 110 46t46 110-46 110-110 46q-31 0-59-12-32 62-91 100-59 37-131 37t-131-37q-59-38-92-100-27 12-58 12-65 0-111-46t-45-110z" horiz-adv-x="1000" />

<glyph glyph-name="cloud" unicode="&#xe85d;" d="M0 319q0 89 64 154t155 64q17 0 31-2 43 61 109 94 68 33 141 33t140-33q66-33 110-94 13 2 31 2 90 0 154-64t64-154-64-155-154-64q-42 0-78 14-88-77-203-77t-203 77q-37-14-78-14-90 0-155 64t-64 155z m63 0q0-65 45-111t111-46q48 0 89 30 77-92 192-92t191 92q41-30 90-30 64 0 110 46t46 111-46 110-110 46q-31 0-59-12-32 62-91 100-59 37-131 37t-131-37q-59-38-92-100-27 12-58 12-65 0-111-46t-45-110z" horiz-adv-x="1000" />

<glyph glyph-name="fog" unicode="&#xe85e;" d="M187 194q0 13 9 22t23 9h562q14 0 22-9t9-22-9-23-22-9h-562q-14 0-23 9t-9 23z m0 125q0 13 9 22t23 9h562q14 0 22-9t9-22-9-23-22-9h-562q-14 0-23 9t-9 23z m0 124q0 14 9 23t23 9h562q14 0 22-9t9-23-9-22-22-9h-562q-14 0-23 9t-9 22z m0 125q0 14 9 23t23 9h562q14 0 22-9t9-23-9-22-22-9h-562q-14 0-23 9t-9 22z" horiz-adv-x="1000" />

<glyph glyph-name="fog-cloud" unicode="&#xe85f;" d="M0 6q0 14 9 23t22 8h937q14 0 23-8t8-23-8-22-23-9h-937q-13 0-22 9t-9 22z m0 125q0 14 9 23t22 8h937q14 0 23-8t8-23-8-22-23-9h-937q-13 0-22 9t-9 22z m0 125q0 14 9 23t22 8h937q14 0 23-8t8-23-8-22-23-9h-937q-13 0-22 9t-9 22z m0 125q0 90 64 154t155 65q17 0 31-2 43 61 109 93 68 34 141 34t140-34q66-32 110-93 13 2 31 2 90 0 154-65t64-154q0-9-3-31h-63q4 16 4 31 0 64-46 110t-110 46q-31 0-59-12-32 62-91 100-59 37-131 37t-131-37q-59-38-92-100-27 12-58 12-65 0-111-46t-45-110q0-15 3-31h-62q-4 22-4 31z" horiz-adv-x="1000" />

<glyph glyph-name="fog-moon" unicode="&#xe860;" d="M94 8q0 14 9 23t22 8h750q13 0 22-8t9-23-9-22-22-9h-750q-14 0-22 9t-9 22z m0 125q0 14 9 23t22 8h750q13 0 22-8t9-23-9-22-22-9h-750q-14 0-22 9t-9 22z m0 125q0 14 9 22t22 9h750q13 0 22-9t9-22-9-22-22-9h-750q-14 0-22 9t-9 22z m188 254q9 88 71 150 39 39 94 59 6 2 11 2 12 0 22-10t10-21q0-5-2-10-12-33-12-66 0-20 4-40 12-52 51-91 39-38 91-49 19-5 39-5l65 12q6 2 10 2 12 0 22-9t9-22q0-6-2-12-10-27-23-50h-82q15 13 17 17-9 0-19 0-99 0-171 73-74 74-74 176 0 7 1 15-7-6-16-14-54-55-54-133t54-132l2-2h-80q-39 61-39 132 0 14 1 28z" horiz-adv-x="1000" />

<glyph glyph-name="fog-sun" unicode="&#xe861;" d="M94 8q0 14 9 23t22 8h750q13 0 22-8t9-23-9-22-22-9h-750q-14 0-22 9t-9 22z m0 125q0 14 9 23t22 8h750q13 0 22-8t9-23-9-22-22-9h-750q-14 0-22 9t-9 22z m0 125q0 14 9 22t22 9h750q13 0 22-9t9-22-9-22-22-9h-750q-14 0-22 9t-9 22z m0 125q0 14 9 22t22 9h62q14 0 23-9t9-22-9-23-23-8h-62q-14 0-22 8t-9 23z m119 242q-11 12-11 23t11 22 22 11 23-11l43-45q10-11 10-21t-10-22-22-11l-21 11z m68-242q0 90 65 154t154 65 154-65 64-154q0-9-4-31h-62q4 16 4 31 0 64-46 110t-110 46-111-46-45-110q0-15 4-31h-63q-4 22-4 31z m188 312v63q0 13 8 22t23 9 22-9 9-22v-63q0-13-9-22t-22-9-23 9-8 22z m230-113q-11 11-11 22t11 21l43 45q12 11 23 11t22-11 10-22-10-23l-45-43q-11-11-22-11z m82-199q0 14 9 22t22 9h63q13 0 22-9t9-22-9-23-22-8h-63q-14 0-22 8t-9 23z" horiz-adv-x="1000" />

<glyph glyph-name="cloud-moon" unicode="&#xe862;" d="M2 131q0 90 64 154t155 65q17 0 31-2 78 107 211 125-10 31-10 64 0 30 9 63 16 66 63 113 39 39 94 58 7 3 13 3 11 0 20-9 10-11 10-22 0-5-2-11-12-32-12-65 0-20 4-39 12-52 50-91 38-39 91-51 20-4 39-4 33 0 66 12 5 2 10 2 12 0 22-10 10-9 10-20 0-6-3-13-20-54-59-93-7-8-27-22 66-21 108-78 42-57 42-129 0-90-64-154t-154-65q-42 0-78 14-88-76-203-76t-203 76q-37-14-78-14-90 0-155 65t-64 154z m62 0q0-64 46-110t111-46q48 0 89 29 77-92 192-92t191 92q41-29 90-29 64 0 110 46t46 110-46 110-110 46q-31 0-59-11-2 2-5 6t-3 7q-25 40-58 69-38 28-84 43-35 11-72 11-14 0-14-2-69-2-123-39-54-37-86-95-27 11-58 11-65 0-111-46t-46-110z m455 445q-4-20-4-40 0-33 12-63 134-10 219-117 65 15 103 64-8 0-15 0-101 0-176 73-73 73-73 171 0 10 1 20-8-6-16-14-39-39-51-94z" horiz-adv-x="1000" />

<glyph glyph-name="cloud-sun" unicode="&#xe863;" d="M0 131q0 88 62 151t149 68q-24 45-24 93 0 90 65 155t154 64q89 0 153-62 63-62 66-153 75-32 125-99 13 2 31 2 90 0 154-65t64-154-64-154-154-65q-42 0-78 14-88-76-203-76t-203 76q-37-14-78-14-90 0-155 65t-64 154z m0 312q0 14 9 23t22 9h63q13 0 22-9t9-23-9-22-22-9h-63q-13 0-22 9t-9 22z m63-312q0-64 45-110t111-46q48 0 89 29 77-92 192-92t191 92q41-29 90-29 64 0 110 46t46 110-46 110-110 46q-31 0-59-11-37 70-107 107-28 16-59 21-28 8-56 8-115 0-192-90-19-23-31-46-1 0-15 3-23 8-43 8-65 0-111-46t-45-110z m56 555q-11 11-11 22t11 22 22 11 23-11l43-44q11-11 11-22t-11-21-22-11l-21 11z m131-243q0-37 19-72 92 104 231 104 27 0 60-6-9 56-52 94t-102 37q-64 0-110-46t-46-111z m125 313v62q0 14 9 23t22 8 23-8 8-23v-62q0-14-8-23t-23-8-22 8-9 23z m230-113q-11 10-11 21t11 22l43 44q12 11 23 11t22-11 11-22-11-22l-45-43q-11-11-21-11z m82-200q0 14 9 23t22 9h63q14 0 22-9t9-23-9-22-22-9h-63q-13 0-22 9t-9 22z" horiz-adv-x="1000" />

<glyph glyph-name="snowflake" unicode="&#xe864;" d="M224 240q6 25 28 39l64 38q-4 16-4 33t4 35l-64 35q-22 14-28 39-2 9-2 17 0 16 7 31 13 22 38 28 9 2 17 2 16 0 30-8l65-37q28 22 58 33v75q0 25 19 44t44 18 44-18 18-44v-75q31-11 59-33l64 37q13 8 29 8 8 0 18-3 25-6 38-28 8-14 8-30 0-8-2-17-6-25-28-39l-65-37q4-17 4-33t-4-33l65-38q22-14 28-39 2-8 2-17 0-15-8-29-13-22-38-29-10-2-18-2-16 0-29 7l-64 37q-27-21-59-33v-74q0-25-18-44t-44-19-44 19-19 44v74q-30 12-58 33l-65-37q-13-7-28-7-9 0-19 2-25 7-38 29-8 14-8 29 0 9 3 17z m213 110q0-26 18-45 19-18 45-18t44 19 18 44-18 44-44 18-44-18-19-44z" horiz-adv-x="1000" />

<glyph glyph-name="arrows-cw-outline" unicode="&#xe865;" d="M286 845q0 64 47 110t110 47q65 0 111-47l241-241q31-11 56-36 139-139 139-326 0-205-145-350-67-67-147-103 5-19 5-44 0-64-46-110t-109-46q-65 0-112 46l-243 244q-30 11-54 35-139 139-139 326 0 205 145 350 68 68 148 103-7 22-7 42z m228-884q149 5 257 114 114 114 114 277 0 145-107 252-15 15-37 15-22 0-37-15t-15-37 15-37q42-42 60-83t17-95q0-119-83-203-75-75-179-82l65 65q15 15 15 36t-15 37-36 15q-23 0-38-15l-192-193 192-193q15-15 38-15 21 0 36 15t15 37-15 37z m-40 779q-149-7-255-113-115-115-115-277 0-145 107-252 15-15 38-15 21 0 36 15t15 37-15 37q-42 42-59 82t-17 96q0 119 84 203 76 76 180 84l-67-68q-15-15-15-36t15-36q17-17 37-17 21 0 37 17l193 192-193 193q-16 16-37 16-20 0-37-16-15-15-15-37t15-36z m-135-215q-79-71-79-175 0-45 14-75t49-66q37-37 28-89l123 122q31 31 74 31 41 0 71-28t32-68q78 71 78 175 0 45-13 76t-48 66-29 88l-123-123q-30-30-73-30-42 0-72 28t-32 68z" horiz-adv-x="990" />

<glyph glyph-name="eclipse" unicode="&#xe866;" d="M123 320q0 14 9 23t22 9h63q13 0 22-9t9-23-9-22-22-9h-63q-13 0-22 9t-9 22z m119-286q-11 10-11 21t11 23l45 43q11 13 22 13l21-12q11-11 11-22t-11-22l-43-44q-12-11-23-11t-22 11z m0 529q-11 11-11 22t11 22 22 11 23-11l43-44q11-11 11-22t-11-21-22-11l-21 11z m68-243q0 90 65 155t154 64q29 0 63-10 33 10 62 10 90 0 154-64t65-155-65-154-154-64q-29 0-62 10-34-10-63-10-90 0-154 64t-65 154z m63 0q0-56 36-99 36-43 89-53-63 63-63 152t63 153q-53-10-89-53-36-43-36-100z m125-374v62q0 14 9 23t22 8 22-8 9-23v-62q0-14-9-23t-22-9-22 9-9 23z m0 687v62q0 14 9 23t22 8 22-8 9-23v-62q0-14-9-23t-22-8-22 8-9 23z" horiz-adv-x="1000" />

<glyph glyph-name="moon" unicode="&#xe867;" d="M256 356q0 103 74 177 39 39 94 59 5 2 10 2 12 0 21-10t10-22q0-5-2-11-11-30-11-62 0-21 5-42 12-52 50-90t90-50q21-5 42-5 32 0 62 11 6 2 11 2 12 0 22-10t10-21q0-5-2-10-20-55-59-94-74-74-177-74t-177 73-73 177z m62 1q0-78 55-134 54-54 131-54 6 0 12 0 86 6 136 71-10 0-20 0-98 0-170 72t-72 170q0 10 0 20-10-6-17-14-55-54-55-131z" horiz-adv-x="1000" />

<glyph glyph-name="sunrise" unicode="&#xe868;" d="M213 498q-11 12-11 23t11 22 22 11 23-11l43-45q10-11 10-21t-10-22-22-11l-21 11z m68-304q0 13 9 22t22 9h375q14 0 23-9t8-22-8-23-23-9h-375q-13 0-22 9t-9 23z m4 93q12 81 72 134 61 54 143 54t142-54q61-53 72-134h-62q-9 55-53 90-43 35-99 35t-100-35q-43-35-52-90h-63z m59-218q0 13 8 22t23 9h250q13 0 22-9t9-22-9-23-22-9h-250q-14 0-23 9t-8 23z m125 499v63q0 14 8 22t23 9 22-9 9-22v-63q0-13-9-22t-22-9-23 9-8 22z m230-113q-11 11-11 22t11 21l43 45q12 11 23 11t22-11 10-22-10-23l-45-43q-11-11-22-11z" horiz-adv-x="1000" />

<glyph glyph-name="windy-inv" unicode="&#xe869;" d="M0 131q0 14 9 23t22 8h250q14 0 23-8t8-23-8-22-23-9h-250q-13 0-22 9t-9 22z m0 125q0 14 9 23t22 8h125q14 0 23-8t8-23-8-22-23-9h-125q-13 0-22 9t-9 22z m63 125q0 14 8 22t23 9h125q13 0 22-9t9-22-9-22-22-9h-125q-14 0-23 9t-8 22z m208-51q0 78 54 135 54 57 132 60 74 77 178 77t179-77q78-3 132-60 53-57 53-135 0-80-56-136t-139-57q-17 0-33 2-62-41-136-41t-135 41q-16-2-35-2-80 0-137 57t-57 136z" horiz-adv-x="1000" />

<glyph glyph-name="windy-rain" unicode="&#xe86a;" d="M0 318q0 12 9 21t22 9h250q14 0 23-9t8-21q0-14-9-23t-22-10h-250q-13 0-22 10t-9 23z m0 124q0 13 9 22t22 9h125q14 0 23-9t8-22q0-13-9-22t-22-10h-125q-13 0-22 10t-9 22z m63 125q0 13 8 22t23 9h125q13 0 22-9t9-22q0-13-9-22t-22-10h-125q-13 0-22 10t-9 22z m208-49q0 77 54 133t132 60q74 76 178 76t179-76q78-4 132-60t53-133q0-82-56-139t-139-57q-17 0-33 2-62-39-136-39t-135 39q-16-2-35-2-80 0-137 57t-57 139z m63 0q0-55 38-94t93-39q26 0 46 8 56-45 124-45t122 45q23-8 47-8 55 0 94 39t39 94-39 92-94 38h-17q-57 77-152 77t-151-77h-19q-55 0-93-38t-38-92z m103-418q0 35 63 125l15-24q18-26 32-54 15-32 15-47 0-25-18-44t-44-19-44 19-19 44z m250-125q0 35 63 125l15-24q18-26 31-54 16-32 16-47 0-25-18-44t-44-19-44 19-19 44z" horiz-adv-x="1000" />

<glyph glyph-name="snow-1" unicode="&#xe86b;" d="M0 506q0 90 64 154t155 65q17 0 31-2 43 61 109 93 68 33 141 33t140-33q66-32 110-93 13 2 31 2 90 0 154-65t64-154-64-154-154-65q-42 0-78 14-88-76-203-76t-203 76q-37-14-78-14-90 0-155 65t-64 154z m63 0q0-64 45-110t111-46q48 0 89 29 77-92 192-92t191 92q41-29 90-29 64 0 110 46t46 110-46 110-110 46q-31 0-59-12-32 62-91 100-59 37-131 37t-131-37q-59-38-92-100-27 12-58 12-65 0-111-46t-45-110z m285-544q3 15 15 21l35 21q-2 10-2 19t2 18l-35 20q-12 8-15 21-2 5-2 10 0 8 4 17 7 12 21 16t27-4l35-21q14 14 32 19v41q0 14 10 25t25 11 24-11 11-25v-41q17-5 31-19l35 21q14 8 28 4t20-16q4-9 4-17 0-5-1-10-4-13-16-21l-35-20q2-9 2-18t-2-19l35-21q12-6 16-21 1-5 1-10 0-9-4-16-7-12-21-16t-27 4l-35 20q-14-12-31-18v-41q0-15-11-25t-24-10-25 10-10 25v41q-17 6-32 18l-35-20q-13-7-27-4t-21 16q-4 7-4 16 0 5 2 10z m117 61q0-15 10-25t25-9 23 9q12 10 12 25t-11 24-24 10-25-10-10-24z" horiz-adv-x="1000" />

</font>
</defs>
</svg>
